<svg xmlns="http://www.w3.org/2000/svg" version="1.1" xmlns:xlink="http://www.w3.org/1999/xlink" xmlns:svgjs="http://svgjs.com/svgjs" width="1920" height="1080" preserveAspectRatio="none" viewBox="0 0 1920 1080"><g mask="url(&quot;#SvgjsMask5842&quot;)" fill="none"><g mask="url(&quot;#SvgjsMask5844&quot;)"><path d="M1017 189L1017 207L1017 225L1017 243L999 261L981 279L981 297L981 315L981 333L981 351L981 369L981 387L981 405L981 423M1053 675L1035 693L1017 711L1017 729M999 387L1017 405L1017 423L1017 441L1017 459L1035 477M1017 171L999 189L999 207L999 225M1035 747L1017 765L1017 783L1017 801L1017 819L1017 837L1017 855L1017 873L1017 891L1017 909M999 99L981 117M1035 243L1035 261L1035 279L1035 297L1035 315L1035 333M1017 315L1017 333L1035 351M1035 531L1017 549L1017 567M999 459L999 477M1035 729L1053 747L1053 765L1053 783L1053 801L1053 819L1053 837L1053 855M963 -9L963 9L963 27L981 45L999 63L999 81L999 99L999 117L999 135L999 153L1017 171L1017 189L1035 207L1035 225L1035 243L1017 261L1017 279L1017 297L1017 315L999 333L999 351L999 369L999 387L999 405L999 423L999 441L999 459L1017 477L1035 495L1035 513L1035 531L1035 549L1035 567L1053 585L1053 603L1053 621L1053 639L1053 657L1053 675L1053 693L1035 711L1035 729L1035 747L1035 765L1035 783L1035 801" stroke="url(#SvgjsLinearGradient5843)" stroke-width="3"></path><path d="M1030.5 801 a4.5 4.5 0 1 0 9 0 a4.5 4.5 0 1 0 -9 0zM976.5 423 a4.5 4.5 0 1 0 9 0 a4.5 4.5 0 1 0 -9 0zM1012.5 729 a4.5 4.5 0 1 0 9 0 a4.5 4.5 0 1 0 -9 0zM1030.5 477 a4.5 4.5 0 1 0 9 0 a4.5 4.5 0 1 0 -9 0zM994.5 225 a4.5 4.5 0 1 0 9 0 a4.5 4.5 0 1 0 -9 0zM1012.5 909 a4.5 4.5 0 1 0 9 0 a4.5 4.5 0 1 0 -9 0zM976.5 117 a4.5 4.5 0 1 0 9 0 a4.5 4.5 0 1 0 -9 0zM1030.5 333 a4.5 4.5 0 1 0 9 0 a4.5 4.5 0 1 0 -9 0zM1030.5 351 a4.5 4.5 0 1 0 9 0 a4.5 4.5 0 1 0 -9 0zM1012.5 567 a4.5 4.5 0 1 0 9 0 a4.5 4.5 0 1 0 -9 0zM994.5 477 a4.5 4.5 0 1 0 9 0 a4.5 4.5 0 1 0 -9 0zM1048.5 855 a4.5 4.5 0 1 0 9 0 a4.5 4.5 0 1 0 -9 0z" fill="url(#SvgjsLinearGradient5843)"></path><path d="M963 423L945 441L945 459L945 477L945 495L945 513L945 531L945 549L945 567M945 351L963 369L963 387M945 171L927 189L927 207L927 225L927 243M945 63L963 81L963 99L963 117L963 135L963 153M945 387L945 405L945 423M963 513L981 531L981 549L999 567L1017 585L1017 603M945 333L963 351M945 -9L945 9L945 27L945 45L945 63L945 81L945 99L945 117L945 135L945 153L945 171L945 189L945 207L945 225L945 243L945 261L945 279L945 297L945 315L945 333L945 351L945 369L945 387L963 405L963 423L963 441L963 459L963 477L963 495L963 513L963 531" stroke="url(#SvgjsLinearGradient5843)" stroke-width="3"></path><path d="M958.5 531 a4.5 4.5 0 1 0 9 0 a4.5 4.5 0 1 0 -9 0zM940.5 567 a4.5 4.5 0 1 0 9 0 a4.5 4.5 0 1 0 -9 0zM958.5 387 a4.5 4.5 0 1 0 9 0 a4.5 4.5 0 1 0 -9 0zM922.5 243 a4.5 4.5 0 1 0 9 0 a4.5 4.5 0 1 0 -9 0zM958.5 153 a4.5 4.5 0 1 0 9 0 a4.5 4.5 0 1 0 -9 0zM940.5 423 a4.5 4.5 0 1 0 9 0 a4.5 4.5 0 1 0 -9 0zM1012.5 603 a4.5 4.5 0 1 0 9 0 a4.5 4.5 0 1 0 -9 0zM958.5 351 a4.5 4.5 0 1 0 9 0 a4.5 4.5 0 1 0 -9 0z" fill="url(#SvgjsLinearGradient5843)"></path><path d="M1053 387L1035 405L1035 423L1035 441L1035 459M1053 333L1071 351L1071 369L1071 387M1053 369L1035 387M1053 495L1071 513L1089 531L1089 549L1071 567M1071 585L1089 603L1089 621L1089 639M1053 459L1071 477M1053 531L1071 549M1053 423L1071 441L1071 459M1053 405L1071 423M981 -9L981 9L981 27L999 45L1017 63L1017 81L1017 99L1017 117L1017 135L1017 153L1035 171L1035 189L1053 207L1053 225L1053 243L1053 261L1053 279L1053 297L1053 315L1053 333L1053 351L1053 369L1053 387L1053 405L1053 423L1053 441L1053 459L1053 477L1053 495L1053 513L1053 531L1053 549L1053 567L1071 585L1071 603L1071 621L1071 639" stroke="url(#SvgjsLinearGradient5843)" stroke-width="3"></path><path d="M1066.5 639 a4.5 4.5 0 1 0 9 0 a4.5 4.5 0 1 0 -9 0zM1030.5 459 a4.5 4.5 0 1 0 9 0 a4.5 4.5 0 1 0 -9 0zM1066.5 387 a4.5 4.5 0 1 0 9 0 a4.5 4.5 0 1 0 -9 0zM1030.5 387 a4.5 4.5 0 1 0 9 0 a4.5 4.5 0 1 0 -9 0zM1066.5 567 a4.5 4.5 0 1 0 9 0 a4.5 4.5 0 1 0 -9 0zM1084.5 639 a4.5 4.5 0 1 0 9 0 a4.5 4.5 0 1 0 -9 0zM1066.5 477 a4.5 4.5 0 1 0 9 0 a4.5 4.5 0 1 0 -9 0zM1066.5 549 a4.5 4.5 0 1 0 9 0 a4.5 4.5 0 1 0 -9 0zM1066.5 459 a4.5 4.5 0 1 0 9 0 a4.5 4.5 0 1 0 -9 0zM1066.5 423 a4.5 4.5 0 1 0 9 0 a4.5 4.5 0 1 0 -9 0z" fill="url(#SvgjsLinearGradient5843)"></path><path d="M873 783L855 801L855 819L855 837L855 855M873 909L855 927L855 945M891 423L909 441L927 459L927 477M927 27L909 45L909 63M891 603L873 621L855 639L855 657M873 927L891 945L909 963L909 981M873 819L891 837L891 855L891 873L891 891L891 909L891 927L909 945L927 963L927 981L927 999L927 1017L927 1035L927 1053M891 315L909 333L927 351L927 369L927 387L927 405L927 423L927 441M927 153L927 171M891 387L909 405L909 423M891 693L909 711L909 729L909 747L909 765L909 783L891 801L891 819M891 639L873 657L873 675L873 693L873 711L855 729L855 747L855 765L855 783M927 81L909 99L909 117L909 135L909 153M927 -9L927 9L927 27L927 45L927 63L927 81L927 99L927 117L927 135L927 153L909 171L909 189L909 207L909 225L909 243L909 261L909 279L891 297L891 315L891 333L891 351L891 369L891 387L891 405L891 423L891 441L909 459L909 477L909 495L909 513L909 531L891 549L891 567L891 585L891 603L891 621L891 639L891 657L891 675L891 693L891 711L873 729L873 747L873 765L873 783L873 801L873 819L873 837L873 855L873 873L873 891L873 909L873 927L873 945L891 963" stroke="url(#SvgjsLinearGradient5843)" stroke-width="3"></path><path d="M886.5 963 a4.5 4.5 0 1 0 9 0 a4.5 4.5 0 1 0 -9 0zM850.5 855 a4.5 4.5 0 1 0 9 0 a4.5 4.5 0 1 0 -9 0zM850.5 945 a4.5 4.5 0 1 0 9 0 a4.5 4.5 0 1 0 -9 0zM922.5 477 a4.5 4.5 0 1 0 9 0 a4.5 4.5 0 1 0 -9 0zM904.5 63 a4.5 4.5 0 1 0 9 0 a4.5 4.5 0 1 0 -9 0zM850.5 657 a4.5 4.5 0 1 0 9 0 a4.5 4.5 0 1 0 -9 0zM904.5 981 a4.5 4.5 0 1 0 9 0 a4.5 4.5 0 1 0 -9 0zM922.5 1053 a4.5 4.5 0 1 0 9 0 a4.5 4.5 0 1 0 -9 0zM922.5 441 a4.5 4.5 0 1 0 9 0 a4.5 4.5 0 1 0 -9 0zM922.5 171 a4.5 4.5 0 1 0 9 0 a4.5 4.5 0 1 0 -9 0zM904.5 423 a4.5 4.5 0 1 0 9 0 a4.5 4.5 0 1 0 -9 0zM886.5 819 a4.5 4.5 0 1 0 9 0 a4.5 4.5 0 1 0 -9 0zM850.5 783 a4.5 4.5 0 1 0 9 0 a4.5 4.5 0 1 0 -9 0zM904.5 153 a4.5 4.5 0 1 0 9 0 a4.5 4.5 0 1 0 -9 0z" fill="url(#SvgjsLinearGradient5843)"></path><path d="M1053 171L1071 189L1089 207L1089 225L1089 243L1089 261M1071 297L1071 315L1071 333M1071 279L1089 297M999 -9L999 9L999 27L1017 45L1035 63L1035 81L1035 99L1035 117L1035 135L1035 153L1053 171L1053 189L1071 207L1071 225L1071 243L1071 261L1071 279L1071 297L1089 315L1089 333L1089 351L1089 369L1089 387L1089 405L1089 423" stroke="url(#SvgjsLinearGradient5843)" stroke-width="3"></path><path d="M1084.5 423 a4.5 4.5 0 1 0 9 0 a4.5 4.5 0 1 0 -9 0zM1084.5 261 a4.5 4.5 0 1 0 9 0 a4.5 4.5 0 1 0 -9 0zM1066.5 333 a4.5 4.5 0 1 0 9 0 a4.5 4.5 0 1 0 -9 0zM1084.5 297 a4.5 4.5 0 1 0 9 0 a4.5 4.5 0 1 0 -9 0z" fill="url(#SvgjsLinearGradient5843)"></path><path d="M891 9L909 27M909 -9L891 9L891 27L891 45L891 63L891 81L891 99L891 117" stroke="url(#SvgjsLinearGradient5843)" stroke-width="3"></path><path d="M886.5 117 a4.5 4.5 0 1 0 9 0 a4.5 4.5 0 1 0 -9 0zM904.5 27 a4.5 4.5 0 1 0 9 0 a4.5 4.5 0 1 0 -9 0z" fill="url(#SvgjsLinearGradient5843)"></path><path d="M1017 -9L1017 9L1017 27L1035 45L1053 63L1053 81L1053 99" stroke="url(#SvgjsLinearGradient5843)" stroke-width="3"></path><path d="M1048.5 99 a4.5 4.5 0 1 0 9 0 a4.5 4.5 0 1 0 -9 0z" fill="url(#SvgjsLinearGradient5843)"></path><path d="M873 135L855 153M873 99L855 117L855 135M873 297L855 315L855 333L855 351L855 369L855 387M873 423L855 441M873 405L855 423L837 441L837 459L855 477M873 81L855 99M891 477L873 495L873 513L873 531M891 225L873 243L873 261M891 -9L873 9L873 27L873 45L873 63L873 81L873 99L873 117L873 135L873 153L891 171L891 189L891 207L891 225L891 243L891 261L891 279L873 297L873 315L873 333L873 351L873 369L873 387L873 405L873 423L873 441L873 459L891 477L891 495L891 513L891 531L873 549L873 567" stroke="url(#SvgjsLinearGradient5843)" stroke-width="3"></path><path d="M868.5 567 a4.5 4.5 0 1 0 9 0 a4.5 4.5 0 1 0 -9 0zM850.5 153 a4.5 4.5 0 1 0 9 0 a4.5 4.5 0 1 0 -9 0zM850.5 135 a4.5 4.5 0 1 0 9 0 a4.5 4.5 0 1 0 -9 0zM850.5 387 a4.5 4.5 0 1 0 9 0 a4.5 4.5 0 1 0 -9 0zM850.5 441 a4.5 4.5 0 1 0 9 0 a4.5 4.5 0 1 0 -9 0zM850.5 477 a4.5 4.5 0 1 0 9 0 a4.5 4.5 0 1 0 -9 0zM850.5 99 a4.5 4.5 0 1 0 9 0 a4.5 4.5 0 1 0 -9 0zM868.5 531 a4.5 4.5 0 1 0 9 0 a4.5 4.5 0 1 0 -9 0zM868.5 261 a4.5 4.5 0 1 0 9 0 a4.5 4.5 0 1 0 -9 0z" fill="url(#SvgjsLinearGradient5843)"></path><path d="M1071 135L1071 153L1071 171M1071 117L1053 135M1035 -9L1035 9L1035 27L1053 45L1071 63L1071 81L1071 99L1071 117L1071 135L1053 153" stroke="url(#SvgjsLinearGradient5843)" stroke-width="3"></path><path d="M1048.5 153 a4.5 4.5 0 1 0 9 0 a4.5 4.5 0 1 0 -9 0zM1066.5 171 a4.5 4.5 0 1 0 9 0 a4.5 4.5 0 1 0 -9 0zM1048.5 135 a4.5 4.5 0 1 0 9 0 a4.5 4.5 0 1 0 -9 0z" fill="url(#SvgjsLinearGradient5843)"></path><path d="M837 225L819 243L819 261L819 279M837 153L819 171L819 189M837 261L855 279L855 297M837 243L855 261M837 171L855 189L855 207L855 225M873 -9L855 9L855 27L855 45L855 63L837 81L837 99L837 117L837 135L837 153L837 171L837 189L837 207L837 225L837 243L837 261L837 279L837 297L837 315L837 333L837 351L837 369L837 387" stroke="url(#SvgjsLinearGradient5843)" stroke-width="3"></path><path d="M832.5 387 a4.5 4.5 0 1 0 9 0 a4.5 4.5 0 1 0 -9 0zM814.5 279 a4.5 4.5 0 1 0 9 0 a4.5 4.5 0 1 0 -9 0zM814.5 189 a4.5 4.5 0 1 0 9 0 a4.5 4.5 0 1 0 -9 0zM850.5 297 a4.5 4.5 0 1 0 9 0 a4.5 4.5 0 1 0 -9 0zM850.5 261 a4.5 4.5 0 1 0 9 0 a4.5 4.5 0 1 0 -9 0zM850.5 225 a4.5 4.5 0 1 0 9 0 a4.5 4.5 0 1 0 -9 0z" fill="url(#SvgjsLinearGradient5843)"></path><path d="M1053 -9L1053 9L1053 27L1071 45L1089 63L1089 81L1089 99L1089 117L1089 135L1089 153L1089 171" stroke="url(#SvgjsLinearGradient5843)" stroke-width="3"></path><path d="M1084.5 171 a4.5 4.5 0 1 0 9 0 a4.5 4.5 0 1 0 -9 0z" fill="url(#SvgjsLinearGradient5843)"></path><path d="M855 -9L837 9L837 27L837 45L837 63" stroke="url(#SvgjsLinearGradient5843)" stroke-width="3"></path><path d="M832.5 63 a4.5 4.5 0 1 0 9 0 a4.5 4.5 0 1 0 -9 0z" fill="url(#SvgjsLinearGradient5843)"></path><path d="M1125 585L1143 603L1143 621M1125 495L1143 513L1143 531L1143 549L1143 567M1125 603L1107 621L1107 639L1107 657L1107 675M1125 549L1107 567M1125 531L1107 549M1107 441L1089 459M1125 639L1125 657M1107 459L1107 477L1107 495L1107 513L1107 531M1107 423L1125 441L1125 459M1143 675L1125 693L1125 711L1125 729L1125 747L1125 765L1125 783L1125 801L1125 819L1125 837L1125 855L1125 873L1125 891L1125 909L1125 927L1125 945L1125 963M1071 -9L1071 9L1071 27L1089 45L1107 63L1107 81L1107 99L1107 117L1107 135L1107 153L1107 171L1107 189L1107 207L1107 225L1107 243L1107 261L1107 279L1107 297L1107 315L1107 333L1107 351L1107 369L1107 387L1107 405L1107 423L1107 441L1107 459L1125 477L1125 495L1125 513L1125 531L1125 549L1125 567L1125 585L1125 603L1125 621L1125 639L1143 657L1143 675L1143 693" stroke="url(#SvgjsLinearGradient5843)" stroke-width="3"></path><path d="M1138.5 693 a4.5 4.5 0 1 0 9 0 a4.5 4.5 0 1 0 -9 0zM1138.5 621 a4.5 4.5 0 1 0 9 0 a4.5 4.5 0 1 0 -9 0zM1138.5 567 a4.5 4.5 0 1 0 9 0 a4.5 4.5 0 1 0 -9 0zM1102.5 675 a4.5 4.5 0 1 0 9 0 a4.5 4.5 0 1 0 -9 0zM1102.5 567 a4.5 4.5 0 1 0 9 0 a4.5 4.5 0 1 0 -9 0zM1102.5 549 a4.5 4.5 0 1 0 9 0 a4.5 4.5 0 1 0 -9 0zM1084.5 459 a4.5 4.5 0 1 0 9 0 a4.5 4.5 0 1 0 -9 0zM1120.5 657 a4.5 4.5 0 1 0 9 0 a4.5 4.5 0 1 0 -9 0zM1102.5 531 a4.5 4.5 0 1 0 9 0 a4.5 4.5 0 1 0 -9 0zM1120.5 459 a4.5 4.5 0 1 0 9 0 a4.5 4.5 0 1 0 -9 0zM1120.5 963 a4.5 4.5 0 1 0 9 0 a4.5 4.5 0 1 0 -9 0z" fill="url(#SvgjsLinearGradient5843)"></path><path d="M801 405L783 423L783 441L783 459L783 477M801 297L783 315L783 333L783 351L783 369L783 387L783 405M801 279L783 297M801 315L819 333L819 351L819 369M819 117L819 135L819 153M801 477L819 495L819 513L819 531L819 549M801 495L783 513L783 531L783 549L783 567L783 585M837 -9L819 9L819 27L819 45L819 63L819 81L819 99L819 117L801 135L801 153L801 171L801 189L801 207L801 225L801 243L801 261L801 279L801 297L801 315L801 333L801 351L801 369L801 387L801 405L801 423L801 441L801 459L801 477L801 495L801 513" stroke="url(#SvgjsLinearGradient5843)" stroke-width="3"></path><path d="M796.5 513 a4.5 4.5 0 1 0 9 0 a4.5 4.5 0 1 0 -9 0zM778.5 477 a4.5 4.5 0 1 0 9 0 a4.5 4.5 0 1 0 -9 0zM778.5 405 a4.5 4.5 0 1 0 9 0 a4.5 4.5 0 1 0 -9 0zM778.5 297 a4.5 4.5 0 1 0 9 0 a4.5 4.5 0 1 0 -9 0zM814.5 369 a4.5 4.5 0 1 0 9 0 a4.5 4.5 0 1 0 -9 0zM814.5 153 a4.5 4.5 0 1 0 9 0 a4.5 4.5 0 1 0 -9 0zM814.5 549 a4.5 4.5 0 1 0 9 0 a4.5 4.5 0 1 0 -9 0zM778.5 585 a4.5 4.5 0 1 0 9 0 a4.5 4.5 0 1 0 -9 0z" fill="url(#SvgjsLinearGradient5843)"></path><path d="M1125 261L1143 279L1143 297L1143 315L1143 333M1125 153L1143 171L1143 189L1161 207M1125 117L1143 135M1125 81L1143 99L1143 117L1161 135M1125 387L1143 405L1143 423L1143 441L1143 459L1143 477M1125 207L1143 225L1143 243M1089 -9L1089 9L1089 27L1107 45L1125 63L1125 81L1125 99L1125 117L1125 135L1125 153L1125 171L1125 189L1125 207L1125 225L1125 243L1125 261L1125 279L1125 297L1125 315L1125 333L1125 351L1125 369L1125 387L1125 405" stroke="url(#SvgjsLinearGradient5843)" stroke-width="3"></path><path d="M1120.5 405 a4.5 4.5 0 1 0 9 0 a4.5 4.5 0 1 0 -9 0zM1138.5 333 a4.5 4.5 0 1 0 9 0 a4.5 4.5 0 1 0 -9 0zM1156.5 207 a4.5 4.5 0 1 0 9 0 a4.5 4.5 0 1 0 -9 0zM1138.5 135 a4.5 4.5 0 1 0 9 0 a4.5 4.5 0 1 0 -9 0zM1156.5 135 a4.5 4.5 0 1 0 9 0 a4.5 4.5 0 1 0 -9 0zM1138.5 477 a4.5 4.5 0 1 0 9 0 a4.5 4.5 0 1 0 -9 0zM1138.5 243 a4.5 4.5 0 1 0 9 0 a4.5 4.5 0 1 0 -9 0z" fill="url(#SvgjsLinearGradient5843)"></path><path d="M765 261L783 279M765 693L783 711L783 729M765 657L783 675L783 693L801 711L801 729L801 747L801 765L801 783M765 549L747 567M783 243L783 261M765 621L783 639L783 657L801 675L801 693L819 711L819 729L819 747L819 765M765 603L783 621L801 639M765 531L747 549M801 99L783 117M765 513L747 531M819 -9L801 9L801 27L801 45L801 63L801 81L801 99L801 117L783 135L783 153L783 171L783 189L783 207L783 225L783 243L765 261L765 279L765 297L765 315L765 333L765 351L765 369L765 387L765 405L765 423L765 441L765 459L765 477L765 495L765 513L765 531L765 549L765 567L765 585L765 603L765 621L765 639L765 657L765 675L765 693L765 711L765 729" stroke="url(#SvgjsLinearGradient5843)" stroke-width="3"></path><path d="M760.5 729 a4.5 4.5 0 1 0 9 0 a4.5 4.5 0 1 0 -9 0zM778.5 279 a4.5 4.5 0 1 0 9 0 a4.5 4.5 0 1 0 -9 0zM778.5 729 a4.5 4.5 0 1 0 9 0 a4.5 4.5 0 1 0 -9 0zM796.5 783 a4.5 4.5 0 1 0 9 0 a4.5 4.5 0 1 0 -9 0zM742.5 567 a4.5 4.5 0 1 0 9 0 a4.5 4.5 0 1 0 -9 0zM778.5 261 a4.5 4.5 0 1 0 9 0 a4.5 4.5 0 1 0 -9 0zM814.5 765 a4.5 4.5 0 1 0 9 0 a4.5 4.5 0 1 0 -9 0zM796.5 639 a4.5 4.5 0 1 0 9 0 a4.5 4.5 0 1 0 -9 0zM742.5 549 a4.5 4.5 0 1 0 9 0 a4.5 4.5 0 1 0 -9 0zM778.5 117 a4.5 4.5 0 1 0 9 0 a4.5 4.5 0 1 0 -9 0zM742.5 531 a4.5 4.5 0 1 0 9 0 a4.5 4.5 0 1 0 -9 0z" fill="url(#SvgjsLinearGradient5843)"></path><path d="M1161 459L1179 477L1197 495L1197 513L1197 531M1161 387L1179 405L1179 423L1179 441M1179 153L1161 171L1161 189M1143 63L1143 81M1197 819L1179 837L1179 855L1179 873L1179 891M1161 297L1179 315L1179 333L1179 351L1179 369L1179 387L1197 405L1197 423L1197 441L1197 459M1179 549L1161 567L1161 585L1161 603L1161 621L1161 639M1179 495L1161 513L1161 531L1161 549M1161 279L1179 297L1197 315L1197 333L1197 351M1197 693L1179 711L1179 729L1179 747M1197 675L1179 693L1161 711L1161 729L1161 747L1161 765L1161 783L1161 801L1161 819L1161 837L1161 855L1161 873L1161 891L1161 909L1143 927L1143 945M1143 351L1161 369M1179 225L1197 243L1197 261L1197 279L1197 297M1107 -9L1107 9L1107 27L1125 45L1143 63L1161 81L1179 99L1179 117L1179 135L1179 153L1179 171L1179 189L1179 207L1179 225L1179 243L1161 261L1161 279L1161 297L1161 315L1161 333L1143 351L1143 369L1161 387L1161 405L1161 423L1161 441L1161 459L1161 477L1179 495L1179 513L1179 531L1179 549L1179 567L1179 585L1179 603L1197 621L1197 639L1197 657L1197 675L1197 693L1197 711L1197 729L1197 747L1197 765L1197 783L1197 801L1197 819L1197 837L1197 855L1197 873L1197 891L1197 909L1197 927L1197 945" stroke="url(#SvgjsLinearGradient5843)" stroke-width="3"></path><path d="M1192.5 945 a4.5 4.5 0 1 0 9 0 a4.5 4.5 0 1 0 -9 0zM1192.5 531 a4.5 4.5 0 1 0 9 0 a4.5 4.5 0 1 0 -9 0zM1174.5 441 a4.5 4.5 0 1 0 9 0 a4.5 4.5 0 1 0 -9 0zM1156.5 189 a4.5 4.5 0 1 0 9 0 a4.5 4.5 0 1 0 -9 0zM1138.5 81 a4.5 4.5 0 1 0 9 0 a4.5 4.5 0 1 0 -9 0zM1174.5 891 a4.5 4.5 0 1 0 9 0 a4.5 4.5 0 1 0 -9 0zM1192.5 459 a4.5 4.5 0 1 0 9 0 a4.5 4.5 0 1 0 -9 0zM1156.5 639 a4.5 4.5 0 1 0 9 0 a4.5 4.5 0 1 0 -9 0zM1156.5 549 a4.5 4.5 0 1 0 9 0 a4.5 4.5 0 1 0 -9 0zM1192.5 351 a4.5 4.5 0 1 0 9 0 a4.5 4.5 0 1 0 -9 0zM1174.5 747 a4.5 4.5 0 1 0 9 0 a4.5 4.5 0 1 0 -9 0zM1138.5 945 a4.5 4.5 0 1 0 9 0 a4.5 4.5 0 1 0 -9 0zM1156.5 369 a4.5 4.5 0 1 0 9 0 a4.5 4.5 0 1 0 -9 0zM1192.5 297 a4.5 4.5 0 1 0 9 0 a4.5 4.5 0 1 0 -9 0z" fill="url(#SvgjsLinearGradient5843)"></path><path d="M801 -9L783 9L783 27L783 45L783 63" stroke="url(#SvgjsLinearGradient5843)" stroke-width="3"></path><path d="M778.5 63 a4.5 4.5 0 1 0 9 0 a4.5 4.5 0 1 0 -9 0z" fill="url(#SvgjsLinearGradient5843)"></path><path d="M1215 333L1233 351L1233 369L1233 387M1215 477L1233 495L1233 513L1233 531L1233 549L1233 567L1251 585M1215 189L1197 207L1197 225M1215 783L1233 801L1233 819L1233 837L1233 855M1215 279L1233 297L1233 315L1233 333L1251 351L1251 369L1251 387L1251 405L1251 423L1251 441L1233 459M1233 657L1251 675L1251 693L1251 711L1251 729M1197 117L1197 135L1197 153L1197 171L1197 189M1233 639L1215 657L1215 675M1215 711L1233 729L1233 747M1215 369L1197 387M1233 675L1233 693L1233 711M1215 261L1233 279M1125 -9L1125 9L1125 27L1143 45L1161 63L1179 81L1197 99L1197 117L1215 135L1215 153L1215 171L1215 189L1215 207L1215 225L1215 243L1215 261L1215 279L1215 297L1215 315L1215 333L1215 351L1215 369L1215 387L1215 405L1215 423L1215 441L1215 459L1215 477L1215 495L1215 513L1215 531L1215 549L1215 567L1233 585L1233 603L1233 621L1233 639L1233 657L1233 675L1215 693L1215 711L1215 729L1215 747L1215 765L1215 783L1215 801L1215 819L1215 837L1215 855" stroke="url(#SvgjsLinearGradient5843)" stroke-width="3"></path><path d="M1210.5 855 a4.5 4.5 0 1 0 9 0 a4.5 4.5 0 1 0 -9 0zM1228.5 387 a4.5 4.5 0 1 0 9 0 a4.5 4.5 0 1 0 -9 0zM1246.5 585 a4.5 4.5 0 1 0 9 0 a4.5 4.5 0 1 0 -9 0zM1192.5 225 a4.5 4.5 0 1 0 9 0 a4.5 4.5 0 1 0 -9 0zM1228.5 855 a4.5 4.5 0 1 0 9 0 a4.5 4.5 0 1 0 -9 0zM1228.5 459 a4.5 4.5 0 1 0 9 0 a4.5 4.5 0 1 0 -9 0zM1246.5 729 a4.5 4.5 0 1 0 9 0 a4.5 4.5 0 1 0 -9 0zM1192.5 189 a4.5 4.5 0 1 0 9 0 a4.5 4.5 0 1 0 -9 0zM1210.5 675 a4.5 4.5 0 1 0 9 0 a4.5 4.5 0 1 0 -9 0zM1228.5 747 a4.5 4.5 0 1 0 9 0 a4.5 4.5 0 1 0 -9 0zM1192.5 387 a4.5 4.5 0 1 0 9 0 a4.5 4.5 0 1 0 -9 0zM1228.5 711 a4.5 4.5 0 1 0 9 0 a4.5 4.5 0 1 0 -9 0zM1228.5 279 a4.5 4.5 0 1 0 9 0 a4.5 4.5 0 1 0 -9 0z" fill="url(#SvgjsLinearGradient5843)"></path><path d="M765 27L747 45L747 63L747 81M765 225L747 243M765 117L747 135L747 153M765 153L765 171M765 207L747 225M747 189L747 207M765 99L747 117M783 -9L765 9L765 27L765 45L765 63L765 81L765 99L765 117L765 135L765 153L747 171L747 189L765 207L765 225L765 243L747 261L747 279L747 297L747 315L747 333L747 351L747 369L747 387L747 405L747 423L747 441L747 459L747 477" stroke="url(#SvgjsLinearGradient5843)" stroke-width="3"></path><path d="M742.5 477 a4.5 4.5 0 1 0 9 0 a4.5 4.5 0 1 0 -9 0zM742.5 81 a4.5 4.5 0 1 0 9 0 a4.5 4.5 0 1 0 -9 0zM742.5 243 a4.5 4.5 0 1 0 9 0 a4.5 4.5 0 1 0 -9 0zM742.5 153 a4.5 4.5 0 1 0 9 0 a4.5 4.5 0 1 0 -9 0zM760.5 171 a4.5 4.5 0 1 0 9 0 a4.5 4.5 0 1 0 -9 0zM742.5 225 a4.5 4.5 0 1 0 9 0 a4.5 4.5 0 1 0 -9 0zM742.5 207 a4.5 4.5 0 1 0 9 0 a4.5 4.5 0 1 0 -9 0zM742.5 117 a4.5 4.5 0 1 0 9 0 a4.5 4.5 0 1 0 -9 0z" fill="url(#SvgjsLinearGradient5843)"></path><path d="M1233 189L1251 207M1143 -9L1143 9L1143 27L1161 45L1179 63L1197 81L1215 99L1215 117L1233 135L1233 153L1233 171L1233 189L1233 207" stroke="url(#SvgjsLinearGradient5843)" stroke-width="3"></path><path d="M1228.5 207 a4.5 4.5 0 1 0 9 0 a4.5 4.5 0 1 0 -9 0zM1246.5 207 a4.5 4.5 0 1 0 9 0 a4.5 4.5 0 1 0 -9 0z" fill="url(#SvgjsLinearGradient5843)"></path><path d="M747 729L729 747L729 765L729 783L729 801L711 819L693 837L693 855L693 873L693 891L693 909L693 927L693 945L693 963L693 981L693 999L693 1017L693 1035L693 1053M729 531L711 549L711 567L711 585L711 603L711 621L711 639L711 657L711 675M747 675L729 693L729 711L729 729L711 747L711 765L711 783L711 801L693 819M729 585L729 603L729 621L729 639L729 657L729 675M747 783L765 801L765 819L765 837L765 855M729 459L711 477L711 495L711 513L711 531M729 837L747 855L747 873M747 1035L729 1053M747 747L765 765M729 495L747 513M729 819L747 837M747 1017L729 1035L711 1053M729 891L729 909L729 927L729 945L729 963L729 981L729 999L729 1017L711 1035M747 927L765 945L765 963L783 981L783 999L783 1017L783 1035L783 1053M747 999L765 1017L765 1035L765 1053M765 -9L747 9L729 27L729 45L729 63L729 81L729 99L729 117L729 135L729 153L729 171L729 189L729 207L729 225L729 243L729 261L729 279L729 297L729 315L729 333L729 351L729 369L729 387L729 405L729 423L729 441L729 459L729 477L729 495L729 513L729 531L729 549L729 567L729 585L747 603L747 621L747 639L747 657L747 675L747 693L747 711L747 729L747 747L747 765L747 783L747 801L729 819L729 837L729 855L729 873L729 891L747 909L747 927L747 945L747 963L747 981L747 999L747 1017L747 1035L747 1053" stroke="url(#SvgjsLinearGradient5843)" stroke-width="3"></path><path d="M742.5 1053 a4.5 4.5 0 1 0 9 0 a4.5 4.5 0 1 0 -9 0zM688.5 1053 a4.5 4.5 0 1 0 9 0 a4.5 4.5 0 1 0 -9 0zM706.5 675 a4.5 4.5 0 1 0 9 0 a4.5 4.5 0 1 0 -9 0zM688.5 819 a4.5 4.5 0 1 0 9 0 a4.5 4.5 0 1 0 -9 0zM724.5 675 a4.5 4.5 0 1 0 9 0 a4.5 4.5 0 1 0 -9 0zM760.5 855 a4.5 4.5 0 1 0 9 0 a4.5 4.5 0 1 0 -9 0zM706.5 531 a4.5 4.5 0 1 0 9 0 a4.5 4.5 0 1 0 -9 0zM742.5 873 a4.5 4.5 0 1 0 9 0 a4.5 4.5 0 1 0 -9 0zM724.5 1053 a4.5 4.5 0 1 0 9 0 a4.5 4.5 0 1 0 -9 0zM760.5 765 a4.5 4.5 0 1 0 9 0 a4.5 4.5 0 1 0 -9 0zM742.5 513 a4.5 4.5 0 1 0 9 0 a4.5 4.5 0 1 0 -9 0zM742.5 837 a4.5 4.5 0 1 0 9 0 a4.5 4.5 0 1 0 -9 0zM706.5 1053 a4.5 4.5 0 1 0 9 0 a4.5 4.5 0 1 0 -9 0zM706.5 1035 a4.5 4.5 0 1 0 9 0 a4.5 4.5 0 1 0 -9 0zM778.5 1053 a4.5 4.5 0 1 0 9 0 a4.5 4.5 0 1 0 -9 0zM760.5 1053 a4.5 4.5 0 1 0 9 0 a4.5 4.5 0 1 0 -9 0z" fill="url(#SvgjsLinearGradient5843)"></path><path d="M1161 -9L1161 9L1161 27L1179 45L1197 63" stroke="url(#SvgjsLinearGradient5843)" stroke-width="3"></path><path d="M1192.5 63 a4.5 4.5 0 1 0 9 0 a4.5 4.5 0 1 0 -9 0z" fill="url(#SvgjsLinearGradient5843)"></path><path d="M711 279L693 297L693 315L693 333L693 351M711 387L693 405L693 423L675 441M711 243L693 261M711 225L693 243L675 261M711 369L693 387L675 405L675 423M711 189L693 207L693 225L675 243M747 -9L729 9L711 27L711 45L711 63L711 81L711 99L711 117L711 135L711 153L711 171L711 189L711 207L711 225L711 243L711 261L711 279L711 297L711 315L711 333L711 351L711 369L711 387L711 405" stroke="url(#SvgjsLinearGradient5843)" stroke-width="3"></path><path d="M706.5 405 a4.5 4.5 0 1 0 9 0 a4.5 4.5 0 1 0 -9 0zM688.5 351 a4.5 4.5 0 1 0 9 0 a4.5 4.5 0 1 0 -9 0zM670.5 441 a4.5 4.5 0 1 0 9 0 a4.5 4.5 0 1 0 -9 0zM688.5 261 a4.5 4.5 0 1 0 9 0 a4.5 4.5 0 1 0 -9 0zM670.5 261 a4.5 4.5 0 1 0 9 0 a4.5 4.5 0 1 0 -9 0zM670.5 423 a4.5 4.5 0 1 0 9 0 a4.5 4.5 0 1 0 -9 0zM670.5 243 a4.5 4.5 0 1 0 9 0 a4.5 4.5 0 1 0 -9 0z" fill="url(#SvgjsLinearGradient5843)"></path><path d="M1287 261L1269 279L1269 297L1269 315M1323 567L1341 585L1341 603M1287 225L1269 243L1269 261L1251 279L1251 297L1251 315M1323 477L1341 495M1323 621L1341 639L1341 657L1341 675L1341 693M1323 603L1305 621L1305 639M1269 207L1269 225M1251 171L1251 189M1323 459L1305 477L1305 495L1305 513L1305 531L1305 549L1305 567L1305 585L1305 603M1305 387L1287 405L1287 423M1179 -9L1179 9L1179 27L1197 45L1215 63L1215 81L1233 99L1233 117L1251 135L1251 153L1251 171L1269 189L1269 207L1287 225L1287 243L1287 261L1287 279L1305 297L1305 315L1305 333L1305 351L1305 369L1305 387L1305 405L1305 423L1323 441L1323 459L1323 477L1323 495L1323 513L1323 531L1323 549L1323 567L1323 585L1323 603L1323 621L1323 639L1323 657L1305 675L1305 693" stroke="url(#SvgjsLinearGradient5843)" stroke-width="3"></path><path d="M1300.5 693 a4.5 4.5 0 1 0 9 0 a4.5 4.5 0 1 0 -9 0zM1264.5 315 a4.5 4.5 0 1 0 9 0 a4.5 4.5 0 1 0 -9 0zM1336.5 603 a4.5 4.5 0 1 0 9 0 a4.5 4.5 0 1 0 -9 0zM1246.5 315 a4.5 4.5 0 1 0 9 0 a4.5 4.5 0 1 0 -9 0zM1336.5 495 a4.5 4.5 0 1 0 9 0 a4.5 4.5 0 1 0 -9 0zM1336.5 693 a4.5 4.5 0 1 0 9 0 a4.5 4.5 0 1 0 -9 0zM1300.5 639 a4.5 4.5 0 1 0 9 0 a4.5 4.5 0 1 0 -9 0zM1264.5 225 a4.5 4.5 0 1 0 9 0 a4.5 4.5 0 1 0 -9 0zM1246.5 189 a4.5 4.5 0 1 0 9 0 a4.5 4.5 0 1 0 -9 0zM1300.5 603 a4.5 4.5 0 1 0 9 0 a4.5 4.5 0 1 0 -9 0zM1282.5 423 a4.5 4.5 0 1 0 9 0 a4.5 4.5 0 1 0 -9 0z" fill="url(#SvgjsLinearGradient5843)"></path><path d="M657 279L675 297M675 207L675 225M693 171L693 189M657 297L657 315L657 333L675 351L675 369M729 -9L711 9L693 27L693 45L693 63L693 81L693 99L693 117L693 135L693 153L693 171L675 189L675 207L657 225L657 243L657 261L657 279L657 297L639 315" stroke="url(#SvgjsLinearGradient5843)" stroke-width="3"></path><path d="M634.5 315 a4.5 4.5 0 1 0 9 0 a4.5 4.5 0 1 0 -9 0zM670.5 297 a4.5 4.5 0 1 0 9 0 a4.5 4.5 0 1 0 -9 0zM670.5 225 a4.5 4.5 0 1 0 9 0 a4.5 4.5 0 1 0 -9 0zM688.5 189 a4.5 4.5 0 1 0 9 0 a4.5 4.5 0 1 0 -9 0zM670.5 369 a4.5 4.5 0 1 0 9 0 a4.5 4.5 0 1 0 -9 0z" fill="url(#SvgjsLinearGradient5843)"></path><path d="M1197 9L1197 27M1215 27L1215 45M1197 -9L1197 9L1215 27L1233 45L1233 63L1233 81L1251 99L1251 117L1269 135L1269 153L1269 171L1287 189L1287 207L1305 225L1305 243L1305 261L1305 279L1323 297L1323 315L1323 333" stroke="url(#SvgjsLinearGradient5843)" stroke-width="3"></path><path d="M1318.5 333 a4.5 4.5 0 1 0 9 0 a4.5 4.5 0 1 0 -9 0zM1192.5 27 a4.5 4.5 0 1 0 9 0 a4.5 4.5 0 1 0 -9 0zM1210.5 45 a4.5 4.5 0 1 0 9 0 a4.5 4.5 0 1 0 -9 0z" fill="url(#SvgjsLinearGradient5843)"></path><path d="M639 351L657 369L657 387L657 405L657 423M675 765L657 783L657 801L657 819L657 837L639 855L639 873M657 855L675 873L675 891L675 909L675 927M693 513L675 531L675 549L675 567L675 585L675 603L675 621L675 639L675 657L675 675M657 963L675 981M693 693L675 711L675 729L675 747L657 765L639 783L639 801L639 819M639 423L639 441L639 459L639 477M693 495L675 513L657 531L657 549M693 747L693 765M639 405L621 423L621 441M657 981L657 999L657 1017L657 1035L657 1053M657 909L639 927L639 945L639 963L621 981L603 999L603 1017L603 1035L603 1053M693 477L675 495M657 891L639 909M711 -9L693 9L675 27L675 45L675 63L675 81L675 99L675 117L675 135L675 153L675 171L657 189L657 207L639 225L639 243L639 261L639 279L639 297L621 315L621 333L639 351L639 369L639 387L639 405L639 423L657 441L675 459L693 477L693 495L693 513L693 531L693 549L693 567L693 585L693 603L693 621L693 639L693 657L693 675L693 693L693 711L693 729L693 747L675 765L675 783L675 801L675 819L675 837L657 855L657 873L657 891L657 909L657 927L657 945L657 963L657 981L675 999" stroke="url(#SvgjsLinearGradient5843)" stroke-width="3"></path><path d="M670.5 999 a4.5 4.5 0 1 0 9 0 a4.5 4.5 0 1 0 -9 0zM652.5 423 a4.5 4.5 0 1 0 9 0 a4.5 4.5 0 1 0 -9 0zM634.5 873 a4.5 4.5 0 1 0 9 0 a4.5 4.5 0 1 0 -9 0zM670.5 927 a4.5 4.5 0 1 0 9 0 a4.5 4.5 0 1 0 -9 0zM670.5 675 a4.5 4.5 0 1 0 9 0 a4.5 4.5 0 1 0 -9 0zM670.5 981 a4.5 4.5 0 1 0 9 0 a4.5 4.5 0 1 0 -9 0zM634.5 819 a4.5 4.5 0 1 0 9 0 a4.5 4.5 0 1 0 -9 0zM634.5 477 a4.5 4.5 0 1 0 9 0 a4.5 4.5 0 1 0 -9 0zM652.5 549 a4.5 4.5 0 1 0 9 0 a4.5 4.5 0 1 0 -9 0zM688.5 765 a4.5 4.5 0 1 0 9 0 a4.5 4.5 0 1 0 -9 0zM616.5 441 a4.5 4.5 0 1 0 9 0 a4.5 4.5 0 1 0 -9 0zM652.5 1053 a4.5 4.5 0 1 0 9 0 a4.5 4.5 0 1 0 -9 0zM598.5 1053 a4.5 4.5 0 1 0 9 0 a4.5 4.5 0 1 0 -9 0zM670.5 495 a4.5 4.5 0 1 0 9 0 a4.5 4.5 0 1 0 -9 0zM634.5 909 a4.5 4.5 0 1 0 9 0 a4.5 4.5 0 1 0 -9 0z" fill="url(#SvgjsLinearGradient5843)"></path><path d="M1341 387L1323 405L1323 423M1341 369L1323 387M1341 351L1323 369M1215 -9L1215 9L1233 27L1251 45L1251 63L1251 81L1269 99L1269 117L1287 135L1287 153L1287 171L1305 189L1305 207L1323 225L1323 243L1323 261L1323 279L1341 297L1341 315L1341 333L1341 351L1341 369L1341 387L1341 405" stroke="url(#SvgjsLinearGradient5843)" stroke-width="3"></path><path d="M1336.5 405 a4.5 4.5 0 1 0 9 0 a4.5 4.5 0 1 0 -9 0zM1318.5 423 a4.5 4.5 0 1 0 9 0 a4.5 4.5 0 1 0 -9 0zM1318.5 387 a4.5 4.5 0 1 0 9 0 a4.5 4.5 0 1 0 -9 0zM1318.5 369 a4.5 4.5 0 1 0 9 0 a4.5 4.5 0 1 0 -9 0z" fill="url(#SvgjsLinearGradient5843)"></path><path d="M603 351L621 369L621 387L621 405M603 513L603 531L603 549L603 567L603 585L603 603M621 639L639 657L639 675L639 693L639 711L639 729L639 747L639 765L621 783L621 801L621 819L621 837M603 495L621 513L639 531M603 459L585 477L585 495L585 513L585 531L585 549M621 603L639 621L639 639M603 423L585 441L585 459M603 477L621 495L639 513M621 585L639 603L657 621L657 639M693 -9L675 9L657 27L657 45L657 63L657 81L657 99L657 117L657 135L657 153L657 171L639 189L639 207L621 225L621 243L621 261L621 279L621 297L603 315L603 333L603 351L603 369L603 387L603 405L603 423L603 441L603 459L603 477L603 495L603 513L621 531L621 549L621 567L621 585L621 603L621 621L621 639L621 657" stroke="url(#SvgjsLinearGradient5843)" stroke-width="3"></path><path d="M616.5 657 a4.5 4.5 0 1 0 9 0 a4.5 4.5 0 1 0 -9 0zM616.5 405 a4.5 4.5 0 1 0 9 0 a4.5 4.5 0 1 0 -9 0zM598.5 603 a4.5 4.5 0 1 0 9 0 a4.5 4.5 0 1 0 -9 0zM616.5 837 a4.5 4.5 0 1 0 9 0 a4.5 4.5 0 1 0 -9 0zM634.5 531 a4.5 4.5 0 1 0 9 0 a4.5 4.5 0 1 0 -9 0zM580.5 549 a4.5 4.5 0 1 0 9 0 a4.5 4.5 0 1 0 -9 0zM634.5 639 a4.5 4.5 0 1 0 9 0 a4.5 4.5 0 1 0 -9 0zM580.5 459 a4.5 4.5 0 1 0 9 0 a4.5 4.5 0 1 0 -9 0zM634.5 513 a4.5 4.5 0 1 0 9 0 a4.5 4.5 0 1 0 -9 0zM652.5 639 a4.5 4.5 0 1 0 9 0 a4.5 4.5 0 1 0 -9 0z" fill="url(#SvgjsLinearGradient5843)"></path><path d="M1233 -9L1233 9" stroke="url(#SvgjsLinearGradient5843)" stroke-width="3"></path><path d="M1228.5 9 a4.5 4.5 0 1 0 9 0 a4.5 4.5 0 1 0 -9 0z" fill="url(#SvgjsLinearGradient5843)"></path><path d="M639 153L621 171L603 189L603 207L585 225L585 243L585 261L585 279M603 279L603 297M567 549L549 567L549 585M585 657L567 675L567 693L567 711L567 729L567 747L567 765L567 783M585 693L603 711L603 729L603 747L603 765L603 783L603 801M639 135L621 153M585 675L603 693L621 711L621 729L621 747L621 765M639 81L621 99L621 117L621 135M567 531L549 549M585 639L567 657M675 -9L657 9L639 27L639 45L639 63L639 81L639 99L639 117L639 135L639 153L639 171L621 189L621 207L603 225L603 243L603 261L603 279L585 297L585 315L585 333L585 351L585 369L585 387L585 405L567 423L567 441L567 459L567 477L567 495L567 513L567 531L567 549L567 567L567 585L585 603L585 621L585 639L585 657L585 675L585 693L585 711" stroke="url(#SvgjsLinearGradient5843)" stroke-width="3"></path><path d="M580.5 711 a4.5 4.5 0 1 0 9 0 a4.5 4.5 0 1 0 -9 0zM580.5 279 a4.5 4.5 0 1 0 9 0 a4.5 4.5 0 1 0 -9 0zM598.5 297 a4.5 4.5 0 1 0 9 0 a4.5 4.5 0 1 0 -9 0zM544.5 585 a4.5 4.5 0 1 0 9 0 a4.5 4.5 0 1 0 -9 0zM562.5 783 a4.5 4.5 0 1 0 9 0 a4.5 4.5 0 1 0 -9 0zM598.5 801 a4.5 4.5 0 1 0 9 0 a4.5 4.5 0 1 0 -9 0zM616.5 153 a4.5 4.5 0 1 0 9 0 a4.5 4.5 0 1 0 -9 0zM616.5 765 a4.5 4.5 0 1 0 9 0 a4.5 4.5 0 1 0 -9 0zM616.5 135 a4.5 4.5 0 1 0 9 0 a4.5 4.5 0 1 0 -9 0zM544.5 549 a4.5 4.5 0 1 0 9 0 a4.5 4.5 0 1 0 -9 0zM562.5 657 a4.5 4.5 0 1 0 9 0 a4.5 4.5 0 1 0 -9 0z" fill="url(#SvgjsLinearGradient5843)"></path><path d="M1359 369L1377 387M1377 459L1395 477L1395 495L1395 513L1395 531L1395 549M1377 657L1395 675L1395 693L1413 711L1413 729L1413 747L1395 765L1377 783L1377 801L1377 819L1377 837L1377 855M1377 549L1359 567L1359 585L1359 603M1377 603L1395 621M1377 495L1359 513L1359 531L1359 549L1341 567M1377 441L1395 459M1341 261L1341 279M1359 405L1377 423L1395 441M1377 639L1395 657L1413 675L1413 693M1251 -9L1251 9L1251 27L1269 45L1269 63L1287 81L1287 99L1287 117L1305 135L1305 153L1305 171L1323 189L1323 207L1341 225L1341 243L1341 261L1359 279L1359 297L1359 315L1359 333L1359 351L1359 369L1359 387L1359 405L1359 423L1377 441L1377 459L1377 477L1377 495L1377 513L1377 531L1377 549L1377 567L1377 585L1377 603L1377 621L1377 639L1377 657L1377 675L1377 693L1377 711" stroke="url(#SvgjsLinearGradient5843)" stroke-width="3"></path><path d="M1372.5 711 a4.5 4.5 0 1 0 9 0 a4.5 4.5 0 1 0 -9 0zM1372.5 387 a4.5 4.5 0 1 0 9 0 a4.5 4.5 0 1 0 -9 0zM1390.5 549 a4.5 4.5 0 1 0 9 0 a4.5 4.5 0 1 0 -9 0zM1372.5 855 a4.5 4.5 0 1 0 9 0 a4.5 4.5 0 1 0 -9 0zM1354.5 603 a4.5 4.5 0 1 0 9 0 a4.5 4.5 0 1 0 -9 0zM1390.5 621 a4.5 4.5 0 1 0 9 0 a4.5 4.5 0 1 0 -9 0zM1336.5 567 a4.5 4.5 0 1 0 9 0 a4.5 4.5 0 1 0 -9 0zM1390.5 459 a4.5 4.5 0 1 0 9 0 a4.5 4.5 0 1 0 -9 0zM1336.5 279 a4.5 4.5 0 1 0 9 0 a4.5 4.5 0 1 0 -9 0zM1390.5 441 a4.5 4.5 0 1 0 9 0 a4.5 4.5 0 1 0 -9 0zM1408.5 693 a4.5 4.5 0 1 0 9 0 a4.5 4.5 0 1 0 -9 0z" fill="url(#SvgjsLinearGradient5843)"></path><path d="M621 63L621 81M657 -9L639 9L621 27L621 45L621 63L603 81L603 99L603 117L603 135L603 153L585 171L585 189" stroke="url(#SvgjsLinearGradient5843)" stroke-width="3"></path><path d="M580.5 189 a4.5 4.5 0 1 0 9 0 a4.5 4.5 0 1 0 -9 0zM616.5 81 a4.5 4.5 0 1 0 9 0 a4.5 4.5 0 1 0 -9 0z" fill="url(#SvgjsLinearGradient5843)"></path><path d="M1413 369L1395 387L1395 405L1395 423M1323 135L1323 153L1323 171M1431 639L1413 657M1413 567L1395 585L1395 603L1413 621L1413 639M1377 297L1377 315L1377 333L1377 351L1377 369M1413 333L1395 351L1395 369M1413 405L1431 423L1431 441M1413 585L1413 603M1431 747L1431 765M1413 531L1431 549L1431 567M1413 765L1413 783L1413 801L1413 819L1413 837L1413 855L1413 873L1413 891M1269 -9L1269 9L1269 27L1287 45L1287 63L1305 81L1305 99L1305 117L1323 135L1341 153L1341 171L1341 189L1341 207L1359 225L1359 243L1359 261L1377 279L1377 297L1395 315L1413 333L1413 351L1413 369L1413 387L1413 405L1413 423L1413 441L1413 459L1413 477L1413 495L1413 513L1413 531L1413 549L1413 567L1413 585L1431 603L1431 621L1431 639L1431 657L1431 675L1431 693L1431 711L1431 729L1431 747L1413 765L1395 783" stroke="url(#SvgjsLinearGradient5843)" stroke-width="3"></path><path d="M1390.5 783 a4.5 4.5 0 1 0 9 0 a4.5 4.5 0 1 0 -9 0zM1390.5 423 a4.5 4.5 0 1 0 9 0 a4.5 4.5 0 1 0 -9 0zM1318.5 171 a4.5 4.5 0 1 0 9 0 a4.5 4.5 0 1 0 -9 0zM1408.5 657 a4.5 4.5 0 1 0 9 0 a4.5 4.5 0 1 0 -9 0zM1408.5 639 a4.5 4.5 0 1 0 9 0 a4.5 4.5 0 1 0 -9 0zM1372.5 369 a4.5 4.5 0 1 0 9 0 a4.5 4.5 0 1 0 -9 0zM1390.5 369 a4.5 4.5 0 1 0 9 0 a4.5 4.5 0 1 0 -9 0zM1426.5 441 a4.5 4.5 0 1 0 9 0 a4.5 4.5 0 1 0 -9 0zM1408.5 603 a4.5 4.5 0 1 0 9 0 a4.5 4.5 0 1 0 -9 0zM1426.5 765 a4.5 4.5 0 1 0 9 0 a4.5 4.5 0 1 0 -9 0zM1426.5 567 a4.5 4.5 0 1 0 9 0 a4.5 4.5 0 1 0 -9 0zM1408.5 891 a4.5 4.5 0 1 0 9 0 a4.5 4.5 0 1 0 -9 0z" fill="url(#SvgjsLinearGradient5843)"></path><path d="M549 693L531 711L531 729L531 747L531 765L531 783M567 225L549 243L549 261M549 657L531 675L531 693M531 585L531 603L531 621L531 639L531 657M549 621L567 639M603 45L585 63M549 603L567 621M549 513L549 531M639 -9L621 9L603 27L603 45L603 63L585 81L585 99L585 117L585 135L585 153L567 171L567 189L567 207L567 225L567 243L567 261L567 279L567 297L567 315L567 333L567 351L567 369L567 387L567 405L549 423L549 441L549 459L549 477L549 495L549 513L531 531L531 549L531 567L531 585L549 603L549 621L549 639L549 657L549 675L549 693L549 711" stroke="url(#SvgjsLinearGradient5843)" stroke-width="3"></path><path d="M544.5 711 a4.5 4.5 0 1 0 9 0 a4.5 4.5 0 1 0 -9 0zM526.5 783 a4.5 4.5 0 1 0 9 0 a4.5 4.5 0 1 0 -9 0zM544.5 261 a4.5 4.5 0 1 0 9 0 a4.5 4.5 0 1 0 -9 0zM526.5 693 a4.5 4.5 0 1 0 9 0 a4.5 4.5 0 1 0 -9 0zM526.5 657 a4.5 4.5 0 1 0 9 0 a4.5 4.5 0 1 0 -9 0zM562.5 639 a4.5 4.5 0 1 0 9 0 a4.5 4.5 0 1 0 -9 0zM580.5 63 a4.5 4.5 0 1 0 9 0 a4.5 4.5 0 1 0 -9 0zM562.5 621 a4.5 4.5 0 1 0 9 0 a4.5 4.5 0 1 0 -9 0zM544.5 531 a4.5 4.5 0 1 0 9 0 a4.5 4.5 0 1 0 -9 0z" fill="url(#SvgjsLinearGradient5843)"></path><path d="M1377 243L1395 261M1449 495L1431 513L1431 531M1395 279L1395 297M1449 567L1449 585M1449 459L1431 477M1431 387L1431 405M1287 -9L1287 9L1287 27L1305 45L1305 63L1323 81L1323 99L1323 117L1341 135L1359 153L1359 171L1359 189L1359 207L1377 225L1377 243L1377 261L1395 279L1413 297L1413 315L1431 333L1431 351L1431 369L1431 387L1449 405L1449 423L1449 441L1449 459L1449 477L1449 495L1449 513L1449 531L1449 549L1449 567L1431 585" stroke="url(#SvgjsLinearGradient5843)" stroke-width="3"></path><path d="M1426.5 585 a4.5 4.5 0 1 0 9 0 a4.5 4.5 0 1 0 -9 0zM1390.5 261 a4.5 4.5 0 1 0 9 0 a4.5 4.5 0 1 0 -9 0zM1426.5 531 a4.5 4.5 0 1 0 9 0 a4.5 4.5 0 1 0 -9 0zM1390.5 297 a4.5 4.5 0 1 0 9 0 a4.5 4.5 0 1 0 -9 0zM1444.5 585 a4.5 4.5 0 1 0 9 0 a4.5 4.5 0 1 0 -9 0zM1426.5 477 a4.5 4.5 0 1 0 9 0 a4.5 4.5 0 1 0 -9 0zM1426.5 405 a4.5 4.5 0 1 0 9 0 a4.5 4.5 0 1 0 -9 0z" fill="url(#SvgjsLinearGradient5843)"></path><path d="M549 387L531 405L513 423L513 441L513 459L513 477L513 495L513 513L495 531L495 549L495 567L495 585L495 603L495 621L495 639L495 657M549 315L531 333L531 351M549 369L531 387L513 405L495 423L495 441L495 459L495 477L495 495L495 513M531 261L531 279L531 297L531 315M513 675L495 693L495 711M567 135L549 153M549 207L549 225M585 27L585 45M621 -9L603 9L585 27L567 45L567 63L567 81L567 99L567 117L567 135L567 153L549 171L549 189L549 207L531 225L531 243L531 261L549 279L549 297L549 315L549 333L549 351L549 369L549 387L549 405L531 423L531 441L531 459L531 477L531 495L531 513L513 531L513 549L513 567L513 585L513 603L513 621L513 639L513 657L513 675L513 693L513 711L513 729" stroke="url(#SvgjsLinearGradient5843)" stroke-width="3"></path><path d="M508.5 729 a4.5 4.5 0 1 0 9 0 a4.5 4.5 0 1 0 -9 0zM490.5 657 a4.5 4.5 0 1 0 9 0 a4.5 4.5 0 1 0 -9 0zM526.5 351 a4.5 4.5 0 1 0 9 0 a4.5 4.5 0 1 0 -9 0zM490.5 513 a4.5 4.5 0 1 0 9 0 a4.5 4.5 0 1 0 -9 0zM526.5 315 a4.5 4.5 0 1 0 9 0 a4.5 4.5 0 1 0 -9 0zM490.5 711 a4.5 4.5 0 1 0 9 0 a4.5 4.5 0 1 0 -9 0zM544.5 153 a4.5 4.5 0 1 0 9 0 a4.5 4.5 0 1 0 -9 0zM544.5 225 a4.5 4.5 0 1 0 9 0 a4.5 4.5 0 1 0 -9 0zM580.5 45 a4.5 4.5 0 1 0 9 0 a4.5 4.5 0 1 0 -9 0z" fill="url(#SvgjsLinearGradient5843)"></path><path d="M1467 891L1449 909M1449 603L1467 621M1341 99L1341 117M1449 711L1467 729L1485 747L1485 765L1485 783M1467 801L1449 819L1449 837L1449 855L1449 873L1449 891L1431 909L1431 927L1431 945L1431 963L1431 981L1431 999L1431 1017L1431 1035L1431 1053M1395 225L1395 243M1449 657L1467 675L1467 693L1467 711L1485 729M1467 765L1449 783L1449 801L1431 819L1431 837L1431 855L1431 873L1431 891M1449 729L1449 747L1449 765M1467 585L1467 603M1467 909L1485 927L1485 945L1485 963L1485 981L1485 999L1485 1017L1485 1035L1485 1053M1467 855L1485 873M1305 -9L1305 9L1305 27L1323 45L1323 63L1341 81L1341 99L1359 117L1359 135L1377 153L1377 171L1377 189L1377 207L1395 225L1413 243L1413 261L1413 279L1431 297L1431 315L1449 333L1449 351L1449 369L1449 387L1467 405L1467 423L1467 441L1467 459L1467 477L1467 495L1467 513L1467 531L1467 549L1467 567L1467 585L1449 603L1449 621L1449 639L1449 657L1449 675L1449 693L1449 711L1449 729L1467 747L1467 765L1467 783L1467 801L1467 819L1467 837L1467 855L1467 873L1467 891L1467 909L1467 927L1467 945" stroke="url(#SvgjsLinearGradient5843)" stroke-width="3"></path><path d="M1462.5 945 a4.5 4.5 0 1 0 9 0 a4.5 4.5 0 1 0 -9 0zM1444.5 909 a4.5 4.5 0 1 0 9 0 a4.5 4.5 0 1 0 -9 0zM1462.5 621 a4.5 4.5 0 1 0 9 0 a4.5 4.5 0 1 0 -9 0zM1336.5 117 a4.5 4.5 0 1 0 9 0 a4.5 4.5 0 1 0 -9 0zM1480.5 783 a4.5 4.5 0 1 0 9 0 a4.5 4.5 0 1 0 -9 0zM1426.5 1053 a4.5 4.5 0 1 0 9 0 a4.5 4.5 0 1 0 -9 0zM1390.5 243 a4.5 4.5 0 1 0 9 0 a4.5 4.5 0 1 0 -9 0zM1480.5 729 a4.5 4.5 0 1 0 9 0 a4.5 4.5 0 1 0 -9 0zM1426.5 891 a4.5 4.5 0 1 0 9 0 a4.5 4.5 0 1 0 -9 0zM1444.5 765 a4.5 4.5 0 1 0 9 0 a4.5 4.5 0 1 0 -9 0zM1462.5 603 a4.5 4.5 0 1 0 9 0 a4.5 4.5 0 1 0 -9 0zM1480.5 1053 a4.5 4.5 0 1 0 9 0 a4.5 4.5 0 1 0 -9 0zM1480.5 873 a4.5 4.5 0 1 0 9 0 a4.5 4.5 0 1 0 -9 0z" fill="url(#SvgjsLinearGradient5843)"></path><path d="M477 819L459 837L459 855L459 873L459 891L459 909L459 927L459 945L459 963L459 981L459 999L459 1017L459 1035L459 1053M477 549L459 567L459 585M477 459L477 477M477 855L495 873M477 801L495 819L495 837L495 855L513 873M513 243L495 261L495 279L495 297L495 315L495 333M477 531L459 549L441 567L441 585L441 603L459 621L459 639L459 657L459 675L459 693L459 711M459 495L477 513M495 369L513 387M495 387L495 405M477 729L495 747M477 927L495 945L495 963L495 981L495 999L495 1017L495 1035L513 1053M459 513L459 531L441 549M603 -9L585 9L567 27L549 45L549 63L549 81L549 99L531 117L531 135L531 153L531 171L531 189L531 207L513 225L513 243L513 261L513 279L513 297L513 315L513 333L495 351L495 369L495 387L477 405L477 423L477 441L477 459L459 477L459 495L459 513L477 531L477 549L477 567L477 585L477 603L477 621L477 639L477 657L477 675L477 693L477 711L477 729L477 747L477 765L477 783L477 801L477 819L477 837L477 855L477 873L477 891L477 909L477 927L477 945" stroke="url(#SvgjsLinearGradient5843)" stroke-width="3"></path><path d="M472.5 945 a4.5 4.5 0 1 0 9 0 a4.5 4.5 0 1 0 -9 0zM454.5 1053 a4.5 4.5 0 1 0 9 0 a4.5 4.5 0 1 0 -9 0zM454.5 585 a4.5 4.5 0 1 0 9 0 a4.5 4.5 0 1 0 -9 0zM472.5 477 a4.5 4.5 0 1 0 9 0 a4.5 4.5 0 1 0 -9 0zM490.5 873 a4.5 4.5 0 1 0 9 0 a4.5 4.5 0 1 0 -9 0zM508.5 873 a4.5 4.5 0 1 0 9 0 a4.5 4.5 0 1 0 -9 0zM490.5 333 a4.5 4.5 0 1 0 9 0 a4.5 4.5 0 1 0 -9 0zM454.5 711 a4.5 4.5 0 1 0 9 0 a4.5 4.5 0 1 0 -9 0zM472.5 513 a4.5 4.5 0 1 0 9 0 a4.5 4.5 0 1 0 -9 0zM508.5 387 a4.5 4.5 0 1 0 9 0 a4.5 4.5 0 1 0 -9 0zM490.5 405 a4.5 4.5 0 1 0 9 0 a4.5 4.5 0 1 0 -9 0zM490.5 747 a4.5 4.5 0 1 0 9 0 a4.5 4.5 0 1 0 -9 0zM508.5 1053 a4.5 4.5 0 1 0 9 0 a4.5 4.5 0 1 0 -9 0zM436.5 549 a4.5 4.5 0 1 0 9 0 a4.5 4.5 0 1 0 -9 0z" fill="url(#SvgjsLinearGradient5843)"></path><path d="M1485 585L1503 603L1503 621M1485 639L1467 657M1485 459L1503 477L1503 495L1503 513L1503 531L1521 549L1521 567L1521 585L1521 603L1521 621L1521 639L1521 657L1503 675L1485 693L1485 711M1485 549L1503 567L1503 585M1323 -9L1323 9L1323 27L1341 45L1359 63L1359 81L1359 99L1377 117L1377 135L1395 153L1395 171L1395 189L1395 207L1413 225L1431 243L1431 261L1431 279L1449 297L1449 315L1467 333L1467 351L1467 369L1467 387L1485 405L1485 423L1485 441L1485 459L1485 477L1485 495L1485 513L1485 531L1485 549L1485 567L1485 585L1485 603L1485 621L1485 639L1485 657" stroke="url(#SvgjsLinearGradient5843)" stroke-width="3"></path><path d="M1480.5 657 a4.5 4.5 0 1 0 9 0 a4.5 4.5 0 1 0 -9 0zM1498.5 621 a4.5 4.5 0 1 0 9 0 a4.5 4.5 0 1 0 -9 0zM1462.5 657 a4.5 4.5 0 1 0 9 0 a4.5 4.5 0 1 0 -9 0zM1480.5 711 a4.5 4.5 0 1 0 9 0 a4.5 4.5 0 1 0 -9 0zM1498.5 585 a4.5 4.5 0 1 0 9 0 a4.5 4.5 0 1 0 -9 0z" fill="url(#SvgjsLinearGradient5843)"></path><path d="M513 189L495 207L495 225L495 243M513 171L495 189M585 -9L567 9L549 27L531 45L531 63L531 81L531 99L513 117L513 135L513 153L513 171L513 189L513 207" stroke="url(#SvgjsLinearGradient5843)" stroke-width="3"></path><path d="M508.5 207 a4.5 4.5 0 1 0 9 0 a4.5 4.5 0 1 0 -9 0zM490.5 243 a4.5 4.5 0 1 0 9 0 a4.5 4.5 0 1 0 -9 0zM490.5 189 a4.5 4.5 0 1 0 9 0 a4.5 4.5 0 1 0 -9 0z" fill="url(#SvgjsLinearGradient5843)"></path><path d="M1485 819L1503 837L1503 855L1503 873L1503 891L1503 909L1503 927L1503 945L1503 963L1503 981L1503 999M1521 693L1539 711L1539 729L1539 747L1539 765L1539 783L1521 801L1521 819L1521 837L1521 855L1521 873L1521 891L1521 909L1521 927M1539 657L1539 675L1539 693M1503 747L1521 765M1521 477L1521 495L1521 513L1521 531M1503 441L1503 459M1503 729L1521 747M1521 711L1521 729M1341 -9L1341 9L1341 27L1359 45L1377 63L1377 81L1377 99L1395 117L1395 135L1413 153L1413 171L1413 189L1413 207L1431 225L1449 243L1449 261L1449 279L1467 297L1467 315L1485 333L1485 351L1485 369L1485 387L1503 405L1503 423L1503 441L1521 459L1521 477L1539 495L1539 513L1539 531L1539 549L1539 567L1539 585L1539 603L1539 621L1539 639L1539 657L1521 675L1521 693L1521 711L1503 729L1503 747L1503 765L1503 783L1485 801L1485 819L1485 837" stroke="url(#SvgjsLinearGradient5843)" stroke-width="3"></path><path d="M1480.5 837 a4.5 4.5 0 1 0 9 0 a4.5 4.5 0 1 0 -9 0zM1498.5 999 a4.5 4.5 0 1 0 9 0 a4.5 4.5 0 1 0 -9 0zM1516.5 927 a4.5 4.5 0 1 0 9 0 a4.5 4.5 0 1 0 -9 0zM1534.5 693 a4.5 4.5 0 1 0 9 0 a4.5 4.5 0 1 0 -9 0zM1516.5 765 a4.5 4.5 0 1 0 9 0 a4.5 4.5 0 1 0 -9 0zM1516.5 531 a4.5 4.5 0 1 0 9 0 a4.5 4.5 0 1 0 -9 0zM1498.5 459 a4.5 4.5 0 1 0 9 0 a4.5 4.5 0 1 0 -9 0zM1516.5 747 a4.5 4.5 0 1 0 9 0 a4.5 4.5 0 1 0 -9 0zM1516.5 729 a4.5 4.5 0 1 0 9 0 a4.5 4.5 0 1 0 -9 0z" fill="url(#SvgjsLinearGradient5843)"></path><path d="M477 369L459 387L441 405M441 459L423 477M441 729L423 747L405 765L405 783L405 801L405 819L405 837L405 855L405 873L405 891L405 909L405 927M423 801L441 819M441 675L423 693L423 711L423 729L405 747M477 207L459 225L459 243L459 261L459 279L459 297L459 315L441 333L441 351L441 369L441 387M441 477L441 495L441 513L441 531M477 351L459 369M495 153L495 171M441 639L423 657L423 675L405 693L405 711L405 729M441 621L423 639L405 657L405 675M423 783L441 801L459 819M567 -9L549 9L531 27L513 45L513 63L513 81L513 99L495 117L495 135L495 153L477 171L477 189L477 207L477 225L477 243L477 261L477 279L477 297L477 315L477 333L477 351L477 369L477 387L459 405L441 423L441 441L441 459L441 477L423 495L423 513L423 531L423 549L423 567L423 585L423 603L441 621L441 639L441 657L441 675L441 693L441 711L441 729L441 747L423 765L423 783L423 801L423 819L423 837" stroke="url(#SvgjsLinearGradient5843)" stroke-width="3"></path><path d="M418.5 837 a4.5 4.5 0 1 0 9 0 a4.5 4.5 0 1 0 -9 0zM436.5 405 a4.5 4.5 0 1 0 9 0 a4.5 4.5 0 1 0 -9 0zM418.5 477 a4.5 4.5 0 1 0 9 0 a4.5 4.5 0 1 0 -9 0zM400.5 927 a4.5 4.5 0 1 0 9 0 a4.5 4.5 0 1 0 -9 0zM436.5 819 a4.5 4.5 0 1 0 9 0 a4.5 4.5 0 1 0 -9 0zM400.5 747 a4.5 4.5 0 1 0 9 0 a4.5 4.5 0 1 0 -9 0zM436.5 387 a4.5 4.5 0 1 0 9 0 a4.5 4.5 0 1 0 -9 0zM436.5 531 a4.5 4.5 0 1 0 9 0 a4.5 4.5 0 1 0 -9 0zM454.5 369 a4.5 4.5 0 1 0 9 0 a4.5 4.5 0 1 0 -9 0zM490.5 171 a4.5 4.5 0 1 0 9 0 a4.5 4.5 0 1 0 -9 0zM400.5 729 a4.5 4.5 0 1 0 9 0 a4.5 4.5 0 1 0 -9 0zM400.5 675 a4.5 4.5 0 1 0 9 0 a4.5 4.5 0 1 0 -9 0zM454.5 819 a4.5 4.5 0 1 0 9 0 a4.5 4.5 0 1 0 -9 0z" fill="url(#SvgjsLinearGradient5843)"></path><path d="M1557 711L1575 729L1575 747L1575 765L1575 783L1575 801L1575 819L1575 837L1575 855L1575 873L1575 891L1575 909L1575 927L1575 945L1575 963L1575 981L1593 999L1611 1017L1611 1035L1611 1053M1503 369L1503 387M1557 639L1575 657L1575 675L1575 693L1575 711L1593 729L1593 747M1557 783L1557 801M1557 909L1539 927L1539 945L1539 963L1539 981M1557 981L1557 999L1557 1017L1557 1035M1539 837L1539 855L1539 873L1539 891L1539 909M1557 621L1575 639M1539 819L1557 837M1359 -9L1359 9L1359 27L1377 45L1395 63L1395 81L1413 99L1413 117L1413 135L1431 153L1431 171L1431 189L1431 207L1449 225L1467 243L1467 261L1467 279L1485 297L1485 315L1503 333L1503 351L1503 369L1521 387L1521 405L1521 423L1521 441L1539 459L1539 477L1557 495L1557 513L1557 531L1557 549L1557 567L1557 585L1557 603L1557 621L1557 639L1557 657L1557 675L1557 693L1557 711L1557 729L1557 747L1557 765L1557 783L1539 801L1539 819L1539 837L1557 855L1557 873L1557 891L1557 909L1557 927L1557 945L1557 963L1557 981L1575 999L1575 1017" stroke="url(#SvgjsLinearGradient5843)" stroke-width="3"></path><path d="M1570.5 1017 a4.5 4.5 0 1 0 9 0 a4.5 4.5 0 1 0 -9 0zM1606.5 1053 a4.5 4.5 0 1 0 9 0 a4.5 4.5 0 1 0 -9 0zM1498.5 387 a4.5 4.5 0 1 0 9 0 a4.5 4.5 0 1 0 -9 0zM1588.5 747 a4.5 4.5 0 1 0 9 0 a4.5 4.5 0 1 0 -9 0zM1552.5 801 a4.5 4.5 0 1 0 9 0 a4.5 4.5 0 1 0 -9 0zM1534.5 981 a4.5 4.5 0 1 0 9 0 a4.5 4.5 0 1 0 -9 0zM1552.5 1035 a4.5 4.5 0 1 0 9 0 a4.5 4.5 0 1 0 -9 0zM1534.5 909 a4.5 4.5 0 1 0 9 0 a4.5 4.5 0 1 0 -9 0zM1570.5 639 a4.5 4.5 0 1 0 9 0 a4.5 4.5 0 1 0 -9 0zM1552.5 837 a4.5 4.5 0 1 0 9 0 a4.5 4.5 0 1 0 -9 0z" fill="url(#SvgjsLinearGradient5843)"></path><path d="M405 441L423 459M423 423L423 441M405 567L405 585L405 603M387 621L405 639M459 189L459 207M477 135L459 153M549 -9L531 9L513 27L495 45L495 63L495 81L495 99L477 117L477 135L477 153L459 171L459 189L441 207L441 225L441 243L441 261L441 279L441 297L441 315L423 333L423 351L423 369L423 387L423 405L423 423L405 441L405 459L405 477L405 495L405 513L405 531L405 549L405 567L387 585L387 603L387 621L387 639L387 657L387 675L387 693L387 711L387 729L387 747" stroke="url(#SvgjsLinearGradient5843)" stroke-width="3"></path><path d="M382.5 747 a4.5 4.5 0 1 0 9 0 a4.5 4.5 0 1 0 -9 0zM418.5 459 a4.5 4.5 0 1 0 9 0 a4.5 4.5 0 1 0 -9 0zM418.5 441 a4.5 4.5 0 1 0 9 0 a4.5 4.5 0 1 0 -9 0zM400.5 603 a4.5 4.5 0 1 0 9 0 a4.5 4.5 0 1 0 -9 0zM400.5 639 a4.5 4.5 0 1 0 9 0 a4.5 4.5 0 1 0 -9 0zM454.5 207 a4.5 4.5 0 1 0 9 0 a4.5 4.5 0 1 0 -9 0zM454.5 153 a4.5 4.5 0 1 0 9 0 a4.5 4.5 0 1 0 -9 0z" fill="url(#SvgjsLinearGradient5843)"></path><path d="M1593 585L1575 603L1575 621M1485 261L1503 279M1539 423L1557 441M1575 567L1575 585M1431 117L1449 135M1377 -9L1377 9L1377 27L1395 45L1413 63L1413 81L1431 99L1431 117L1431 135L1449 153L1449 171L1449 189L1449 207L1467 225L1485 243L1485 261L1485 279L1503 297L1503 315L1521 333L1521 351L1521 369L1539 387L1539 405L1539 423L1539 441L1557 459L1557 477L1575 495L1575 513L1575 531L1575 549L1575 567L1593 585L1593 603L1593 621L1593 639L1593 657L1593 675" stroke="url(#SvgjsLinearGradient5843)" stroke-width="3"></path><path d="M1588.5 675 a4.5 4.5 0 1 0 9 0 a4.5 4.5 0 1 0 -9 0zM1570.5 621 a4.5 4.5 0 1 0 9 0 a4.5 4.5 0 1 0 -9 0zM1498.5 279 a4.5 4.5 0 1 0 9 0 a4.5 4.5 0 1 0 -9 0zM1552.5 441 a4.5 4.5 0 1 0 9 0 a4.5 4.5 0 1 0 -9 0zM1570.5 585 a4.5 4.5 0 1 0 9 0 a4.5 4.5 0 1 0 -9 0zM1444.5 135 a4.5 4.5 0 1 0 9 0 a4.5 4.5 0 1 0 -9 0z" fill="url(#SvgjsLinearGradient5843)"></path><path d="M477 63L459 81M531 -9L513 9L495 27L477 45L477 63L477 81L477 99L459 117L441 135L441 153L441 171L441 189L423 207L423 225L423 243L423 261L423 279L423 297L423 315L405 333L405 351L405 369L405 387L405 405L405 423" stroke="url(#SvgjsLinearGradient5843)" stroke-width="3"></path><path d="M400.5 423 a4.5 4.5 0 1 0 9 0 a4.5 4.5 0 1 0 -9 0zM454.5 81 a4.5 4.5 0 1 0 9 0 a4.5 4.5 0 1 0 -9 0z" fill="url(#SvgjsLinearGradient5843)"></path><path d="M1395 -9L1395 9" stroke="url(#SvgjsLinearGradient5843)" stroke-width="3"></path><path d="M1390.5 9 a4.5 4.5 0 1 0 9 0 a4.5 4.5 0 1 0 -9 0z" fill="url(#SvgjsLinearGradient5843)"></path><path d="M387 387L369 405L351 423L351 441L351 459L351 477M369 729L351 747M369 603L351 621L351 639L351 657L351 675L351 693L351 711L351 729L333 747L333 765L333 783M423 135L405 153L405 171L405 189M405 225L387 243L387 261L387 279L387 297M387 351L369 369L369 387L351 405L333 423M441 99L423 117L405 135L387 153L387 171L387 189M369 585L351 603L333 621M387 441L369 459L369 477L369 495L369 513L369 531M387 333L369 351L351 369L333 387M387 549L369 567M513 -9L495 9L477 27L459 45L441 63L441 81L441 99L441 117L423 135L423 153L423 171L423 189L405 207L405 225L405 243L405 261L405 279L405 297L405 315L387 333L387 351L387 369L387 387L387 405L387 423L387 441L387 459L387 477L387 495L387 513L387 531L387 549L387 567L369 585L369 603L369 621L369 639L369 657L369 675L369 693L369 711L369 729L369 747L369 765" stroke="url(#SvgjsLinearGradient5843)" stroke-width="3"></path><path d="M364.5 765 a4.5 4.5 0 1 0 9 0 a4.5 4.5 0 1 0 -9 0zM346.5 477 a4.5 4.5 0 1 0 9 0 a4.5 4.5 0 1 0 -9 0zM346.5 747 a4.5 4.5 0 1 0 9 0 a4.5 4.5 0 1 0 -9 0zM328.5 783 a4.5 4.5 0 1 0 9 0 a4.5 4.5 0 1 0 -9 0zM400.5 189 a4.5 4.5 0 1 0 9 0 a4.5 4.5 0 1 0 -9 0zM382.5 297 a4.5 4.5 0 1 0 9 0 a4.5 4.5 0 1 0 -9 0zM328.5 423 a4.5 4.5 0 1 0 9 0 a4.5 4.5 0 1 0 -9 0zM382.5 189 a4.5 4.5 0 1 0 9 0 a4.5 4.5 0 1 0 -9 0zM328.5 621 a4.5 4.5 0 1 0 9 0 a4.5 4.5 0 1 0 -9 0zM364.5 531 a4.5 4.5 0 1 0 9 0 a4.5 4.5 0 1 0 -9 0zM328.5 387 a4.5 4.5 0 1 0 9 0 a4.5 4.5 0 1 0 -9 0zM364.5 567 a4.5 4.5 0 1 0 9 0 a4.5 4.5 0 1 0 -9 0z" fill="url(#SvgjsLinearGradient5843)"></path><path d="M1521 279L1539 297L1557 315L1557 333L1557 351L1557 369L1575 387L1575 405L1593 423L1593 441L1593 459L1593 477L1611 495L1611 513L1629 531L1629 549L1629 567L1629 585L1629 603L1629 621M1467 153L1485 171L1485 189L1485 207M1611 837L1629 855L1629 873L1629 891M1467 135L1485 153M1593 549L1611 567M1467 117L1485 135L1503 153L1503 171L1503 189L1503 207L1503 225L1521 243L1539 261L1539 279M1611 801L1593 819L1593 837M1629 783L1629 801L1629 819L1629 837L1647 855L1647 873L1647 891L1647 909L1647 927L1647 945L1647 963L1647 981L1647 999L1647 1017L1647 1035M1611 927L1629 945L1629 963L1629 981L1629 999L1629 1017M1611 693L1629 711L1647 729M1611 873L1593 891L1593 909L1593 927L1593 945L1593 963L1611 981L1611 999M1449 99L1449 117M1611 657L1629 675L1629 693L1647 711M1413 -9L1431 9L1431 27L1431 45L1431 63L1431 81L1449 99L1467 117L1467 135L1467 153L1467 171L1467 189L1467 207L1485 225L1503 243L1521 261L1521 279L1521 297L1521 315L1539 333L1539 351L1539 369L1557 387L1557 405L1575 423L1575 441L1575 459L1575 477L1593 495L1593 513L1593 531L1593 549L1593 567L1611 585L1611 603L1611 621L1611 639L1611 657L1611 675L1611 693L1611 711L1611 729L1611 747L1629 765L1629 783L1611 801L1611 819L1611 837L1611 855L1611 873L1611 891L1611 909L1611 927L1611 945" stroke="url(#SvgjsLinearGradient5843)" stroke-width="3"></path><path d="M1606.5 945 a4.5 4.5 0 1 0 9 0 a4.5 4.5 0 1 0 -9 0zM1624.5 621 a4.5 4.5 0 1 0 9 0 a4.5 4.5 0 1 0 -9 0zM1480.5 207 a4.5 4.5 0 1 0 9 0 a4.5 4.5 0 1 0 -9 0zM1624.5 891 a4.5 4.5 0 1 0 9 0 a4.5 4.5 0 1 0 -9 0zM1480.5 153 a4.5 4.5 0 1 0 9 0 a4.5 4.5 0 1 0 -9 0zM1606.5 567 a4.5 4.5 0 1 0 9 0 a4.5 4.5 0 1 0 -9 0zM1534.5 279 a4.5 4.5 0 1 0 9 0 a4.5 4.5 0 1 0 -9 0zM1588.5 837 a4.5 4.5 0 1 0 9 0 a4.5 4.5 0 1 0 -9 0zM1642.5 1035 a4.5 4.5 0 1 0 9 0 a4.5 4.5 0 1 0 -9 0zM1624.5 1017 a4.5 4.5 0 1 0 9 0 a4.5 4.5 0 1 0 -9 0zM1642.5 729 a4.5 4.5 0 1 0 9 0 a4.5 4.5 0 1 0 -9 0zM1606.5 999 a4.5 4.5 0 1 0 9 0 a4.5 4.5 0 1 0 -9 0zM1444.5 117 a4.5 4.5 0 1 0 9 0 a4.5 4.5 0 1 0 -9 0zM1642.5 711 a4.5 4.5 0 1 0 9 0 a4.5 4.5 0 1 0 -9 0z" fill="url(#SvgjsLinearGradient5843)"></path><path d="M495 -9L477 9L459 27L441 45L423 63L423 81" stroke="url(#SvgjsLinearGradient5843)" stroke-width="3"></path><path d="M418.5 81 a4.5 4.5 0 1 0 9 0 a4.5 4.5 0 1 0 -9 0z" fill="url(#SvgjsLinearGradient5843)"></path></g></g><defs><mask id="SvgjsMask5842"><rect width="1920" height="1080" fill="#ffffff"></rect></mask><linearGradient x1="960" y1="0" x2="960" y2="1080" gradientUnits="userSpaceOnUse" id="SvgjsLinearGradient5843"><stop stop-color="rgba(57, 7, 7, 1)" offset="0.18"></stop><stop stop-color="rgba(255, 255, 255, 1)" offset="1"></stop></linearGradient><mask id="SvgjsMask5844"><rect width="1920" height="1080" fill="white"></rect><path d="M1032.75 801 a2.25 2.25 0 1 0 4.5 0 a2.25 2.25 0 1 0 -4.5 0zM978.75 423 a2.25 2.25 0 1 0 4.5 0 a2.25 2.25 0 1 0 -4.5 0zM1014.75 729 a2.25 2.25 0 1 0 4.5 0 a2.25 2.25 0 1 0 -4.5 0zM1032.75 477 a2.25 2.25 0 1 0 4.5 0 a2.25 2.25 0 1 0 -4.5 0zM996.75 225 a2.25 2.25 0 1 0 4.5 0 a2.25 2.25 0 1 0 -4.5 0zM1014.75 909 a2.25 2.25 0 1 0 4.5 0 a2.25 2.25 0 1 0 -4.5 0zM978.75 117 a2.25 2.25 0 1 0 4.5 0 a2.25 2.25 0 1 0 -4.5 0zM1032.75 333 a2.25 2.25 0 1 0 4.5 0 a2.25 2.25 0 1 0 -4.5 0zM1032.75 351 a2.25 2.25 0 1 0 4.5 0 a2.25 2.25 0 1 0 -4.5 0zM1014.75 567 a2.25 2.25 0 1 0 4.5 0 a2.25 2.25 0 1 0 -4.5 0zM996.75 477 a2.25 2.25 0 1 0 4.5 0 a2.25 2.25 0 1 0 -4.5 0zM1050.75 855 a2.25 2.25 0 1 0 4.5 0 a2.25 2.25 0 1 0 -4.5 0z" fill="black"></path><path d="M960.75 531 a2.25 2.25 0 1 0 4.5 0 a2.25 2.25 0 1 0 -4.5 0zM942.75 567 a2.25 2.25 0 1 0 4.5 0 a2.25 2.25 0 1 0 -4.5 0zM960.75 387 a2.25 2.25 0 1 0 4.5 0 a2.25 2.25 0 1 0 -4.5 0zM924.75 243 a2.25 2.25 0 1 0 4.5 0 a2.25 2.25 0 1 0 -4.5 0zM960.75 153 a2.25 2.25 0 1 0 4.5 0 a2.25 2.25 0 1 0 -4.5 0zM942.75 423 a2.25 2.25 0 1 0 4.5 0 a2.25 2.25 0 1 0 -4.5 0zM1014.75 603 a2.25 2.25 0 1 0 4.5 0 a2.25 2.25 0 1 0 -4.5 0zM960.75 351 a2.25 2.25 0 1 0 4.5 0 a2.25 2.25 0 1 0 -4.5 0z" fill="black"></path><path d="M1068.75 639 a2.25 2.25 0 1 0 4.5 0 a2.25 2.25 0 1 0 -4.5 0zM1032.75 459 a2.25 2.25 0 1 0 4.5 0 a2.25 2.25 0 1 0 -4.5 0zM1068.75 387 a2.25 2.25 0 1 0 4.5 0 a2.25 2.25 0 1 0 -4.5 0zM1032.75 387 a2.25 2.25 0 1 0 4.5 0 a2.25 2.25 0 1 0 -4.5 0zM1068.75 567 a2.25 2.25 0 1 0 4.5 0 a2.25 2.25 0 1 0 -4.5 0zM1086.75 639 a2.25 2.25 0 1 0 4.5 0 a2.25 2.25 0 1 0 -4.5 0zM1068.75 477 a2.25 2.25 0 1 0 4.5 0 a2.25 2.25 0 1 0 -4.5 0zM1068.75 549 a2.25 2.25 0 1 0 4.5 0 a2.25 2.25 0 1 0 -4.5 0zM1068.75 459 a2.25 2.25 0 1 0 4.5 0 a2.25 2.25 0 1 0 -4.5 0zM1068.75 423 a2.25 2.25 0 1 0 4.5 0 a2.25 2.25 0 1 0 -4.5 0z" fill="black"></path><path d="M888.75 963 a2.25 2.25 0 1 0 4.5 0 a2.25 2.25 0 1 0 -4.5 0zM852.75 855 a2.25 2.25 0 1 0 4.5 0 a2.25 2.25 0 1 0 -4.5 0zM852.75 945 a2.25 2.25 0 1 0 4.5 0 a2.25 2.25 0 1 0 -4.5 0zM924.75 477 a2.25 2.25 0 1 0 4.5 0 a2.25 2.25 0 1 0 -4.5 0zM906.75 63 a2.25 2.25 0 1 0 4.5 0 a2.25 2.25 0 1 0 -4.5 0zM852.75 657 a2.25 2.25 0 1 0 4.5 0 a2.25 2.25 0 1 0 -4.5 0zM906.75 981 a2.25 2.25 0 1 0 4.5 0 a2.25 2.25 0 1 0 -4.5 0zM924.75 1053 a2.25 2.25 0 1 0 4.5 0 a2.25 2.25 0 1 0 -4.5 0zM924.75 441 a2.25 2.25 0 1 0 4.5 0 a2.25 2.25 0 1 0 -4.5 0zM924.75 171 a2.25 2.25 0 1 0 4.5 0 a2.25 2.25 0 1 0 -4.5 0zM906.75 423 a2.25 2.25 0 1 0 4.5 0 a2.25 2.25 0 1 0 -4.5 0zM888.75 819 a2.25 2.25 0 1 0 4.5 0 a2.25 2.25 0 1 0 -4.5 0zM852.75 783 a2.25 2.25 0 1 0 4.5 0 a2.25 2.25 0 1 0 -4.5 0zM906.75 153 a2.25 2.25 0 1 0 4.5 0 a2.25 2.25 0 1 0 -4.5 0z" fill="black"></path><path d="M1086.75 423 a2.25 2.25 0 1 0 4.5 0 a2.25 2.25 0 1 0 -4.5 0zM1086.75 261 a2.25 2.25 0 1 0 4.5 0 a2.25 2.25 0 1 0 -4.5 0zM1068.75 333 a2.25 2.25 0 1 0 4.5 0 a2.25 2.25 0 1 0 -4.5 0zM1086.75 297 a2.25 2.25 0 1 0 4.5 0 a2.25 2.25 0 1 0 -4.5 0z" fill="black"></path><path d="M888.75 117 a2.25 2.25 0 1 0 4.5 0 a2.25 2.25 0 1 0 -4.5 0zM906.75 27 a2.25 2.25 0 1 0 4.5 0 a2.25 2.25 0 1 0 -4.5 0z" fill="black"></path><path d="M1050.75 99 a2.25 2.25 0 1 0 4.5 0 a2.25 2.25 0 1 0 -4.5 0z" fill="black"></path><path d="M870.75 567 a2.25 2.25 0 1 0 4.5 0 a2.25 2.25 0 1 0 -4.5 0zM852.75 153 a2.25 2.25 0 1 0 4.5 0 a2.25 2.25 0 1 0 -4.5 0zM852.75 135 a2.25 2.25 0 1 0 4.5 0 a2.25 2.25 0 1 0 -4.5 0zM852.75 387 a2.25 2.25 0 1 0 4.5 0 a2.25 2.25 0 1 0 -4.5 0zM852.75 441 a2.25 2.25 0 1 0 4.5 0 a2.25 2.25 0 1 0 -4.5 0zM852.75 477 a2.25 2.25 0 1 0 4.5 0 a2.25 2.25 0 1 0 -4.5 0zM852.75 99 a2.25 2.25 0 1 0 4.5 0 a2.25 2.25 0 1 0 -4.5 0zM870.75 531 a2.25 2.25 0 1 0 4.5 0 a2.25 2.25 0 1 0 -4.5 0zM870.75 261 a2.25 2.25 0 1 0 4.5 0 a2.25 2.25 0 1 0 -4.5 0z" fill="black"></path><path d="M1050.75 153 a2.25 2.25 0 1 0 4.5 0 a2.25 2.25 0 1 0 -4.5 0zM1068.75 171 a2.25 2.25 0 1 0 4.5 0 a2.25 2.25 0 1 0 -4.5 0zM1050.75 135 a2.25 2.25 0 1 0 4.5 0 a2.25 2.25 0 1 0 -4.5 0z" fill="black"></path><path d="M834.75 387 a2.25 2.25 0 1 0 4.5 0 a2.25 2.25 0 1 0 -4.5 0zM816.75 279 a2.25 2.25 0 1 0 4.5 0 a2.25 2.25 0 1 0 -4.5 0zM816.75 189 a2.25 2.25 0 1 0 4.5 0 a2.25 2.25 0 1 0 -4.5 0zM852.75 297 a2.25 2.25 0 1 0 4.5 0 a2.25 2.25 0 1 0 -4.5 0zM852.75 261 a2.25 2.25 0 1 0 4.5 0 a2.25 2.25 0 1 0 -4.5 0zM852.75 225 a2.25 2.25 0 1 0 4.5 0 a2.25 2.25 0 1 0 -4.5 0z" fill="black"></path><path d="M1086.75 171 a2.25 2.25 0 1 0 4.5 0 a2.25 2.25 0 1 0 -4.5 0z" fill="black"></path><path d="M834.75 63 a2.25 2.25 0 1 0 4.5 0 a2.25 2.25 0 1 0 -4.5 0z" fill="black"></path><path d="M1140.75 693 a2.25 2.25 0 1 0 4.5 0 a2.25 2.25 0 1 0 -4.5 0zM1140.75 621 a2.25 2.25 0 1 0 4.5 0 a2.25 2.25 0 1 0 -4.5 0zM1140.75 567 a2.25 2.25 0 1 0 4.5 0 a2.25 2.25 0 1 0 -4.5 0zM1104.75 675 a2.25 2.25 0 1 0 4.5 0 a2.25 2.25 0 1 0 -4.5 0zM1104.75 567 a2.25 2.25 0 1 0 4.5 0 a2.25 2.25 0 1 0 -4.5 0zM1104.75 549 a2.25 2.25 0 1 0 4.5 0 a2.25 2.25 0 1 0 -4.5 0zM1086.75 459 a2.25 2.25 0 1 0 4.5 0 a2.25 2.25 0 1 0 -4.5 0zM1122.75 657 a2.25 2.25 0 1 0 4.5 0 a2.25 2.25 0 1 0 -4.5 0zM1104.75 531 a2.25 2.25 0 1 0 4.5 0 a2.25 2.25 0 1 0 -4.5 0zM1122.75 459 a2.25 2.25 0 1 0 4.5 0 a2.25 2.25 0 1 0 -4.5 0zM1122.75 963 a2.25 2.25 0 1 0 4.5 0 a2.25 2.25 0 1 0 -4.5 0z" fill="black"></path><path d="M798.75 513 a2.25 2.25 0 1 0 4.5 0 a2.25 2.25 0 1 0 -4.5 0zM780.75 477 a2.25 2.25 0 1 0 4.5 0 a2.25 2.25 0 1 0 -4.5 0zM780.75 405 a2.25 2.25 0 1 0 4.5 0 a2.25 2.25 0 1 0 -4.5 0zM780.75 297 a2.25 2.25 0 1 0 4.5 0 a2.25 2.25 0 1 0 -4.5 0zM816.75 369 a2.25 2.25 0 1 0 4.5 0 a2.25 2.25 0 1 0 -4.5 0zM816.75 153 a2.25 2.25 0 1 0 4.5 0 a2.25 2.25 0 1 0 -4.5 0zM816.75 549 a2.25 2.25 0 1 0 4.5 0 a2.25 2.25 0 1 0 -4.5 0zM780.75 585 a2.25 2.25 0 1 0 4.5 0 a2.25 2.25 0 1 0 -4.5 0z" fill="black"></path><path d="M1122.75 405 a2.25 2.25 0 1 0 4.5 0 a2.25 2.25 0 1 0 -4.5 0zM1140.75 333 a2.25 2.25 0 1 0 4.5 0 a2.25 2.25 0 1 0 -4.5 0zM1158.75 207 a2.25 2.25 0 1 0 4.5 0 a2.25 2.25 0 1 0 -4.5 0zM1140.75 135 a2.25 2.25 0 1 0 4.5 0 a2.25 2.25 0 1 0 -4.5 0zM1158.75 135 a2.25 2.25 0 1 0 4.5 0 a2.25 2.25 0 1 0 -4.5 0zM1140.75 477 a2.25 2.25 0 1 0 4.5 0 a2.25 2.25 0 1 0 -4.5 0zM1140.75 243 a2.25 2.25 0 1 0 4.5 0 a2.25 2.25 0 1 0 -4.5 0z" fill="black"></path><path d="M762.75 729 a2.25 2.25 0 1 0 4.5 0 a2.25 2.25 0 1 0 -4.5 0zM780.75 279 a2.25 2.25 0 1 0 4.5 0 a2.25 2.25 0 1 0 -4.5 0zM780.75 729 a2.25 2.25 0 1 0 4.5 0 a2.25 2.25 0 1 0 -4.5 0zM798.75 783 a2.25 2.25 0 1 0 4.5 0 a2.25 2.25 0 1 0 -4.5 0zM744.75 567 a2.25 2.25 0 1 0 4.5 0 a2.25 2.25 0 1 0 -4.5 0zM780.75 261 a2.25 2.25 0 1 0 4.5 0 a2.25 2.25 0 1 0 -4.5 0zM816.75 765 a2.25 2.25 0 1 0 4.5 0 a2.25 2.25 0 1 0 -4.5 0zM798.75 639 a2.25 2.25 0 1 0 4.5 0 a2.25 2.25 0 1 0 -4.5 0zM744.75 549 a2.25 2.25 0 1 0 4.5 0 a2.25 2.25 0 1 0 -4.5 0zM780.75 117 a2.25 2.25 0 1 0 4.5 0 a2.25 2.25 0 1 0 -4.5 0zM744.75 531 a2.25 2.25 0 1 0 4.5 0 a2.25 2.25 0 1 0 -4.5 0z" fill="black"></path><path d="M1194.75 945 a2.25 2.25 0 1 0 4.5 0 a2.25 2.25 0 1 0 -4.5 0zM1194.75 531 a2.25 2.25 0 1 0 4.5 0 a2.25 2.25 0 1 0 -4.5 0zM1176.75 441 a2.25 2.25 0 1 0 4.5 0 a2.25 2.25 0 1 0 -4.5 0zM1158.75 189 a2.25 2.25 0 1 0 4.5 0 a2.25 2.25 0 1 0 -4.5 0zM1140.75 81 a2.25 2.25 0 1 0 4.5 0 a2.25 2.25 0 1 0 -4.5 0zM1176.75 891 a2.25 2.25 0 1 0 4.5 0 a2.25 2.25 0 1 0 -4.5 0zM1194.75 459 a2.25 2.25 0 1 0 4.5 0 a2.25 2.25 0 1 0 -4.5 0zM1158.75 639 a2.25 2.25 0 1 0 4.5 0 a2.25 2.25 0 1 0 -4.5 0zM1158.75 549 a2.25 2.25 0 1 0 4.5 0 a2.25 2.25 0 1 0 -4.5 0zM1194.75 351 a2.25 2.25 0 1 0 4.5 0 a2.25 2.25 0 1 0 -4.5 0zM1176.75 747 a2.25 2.25 0 1 0 4.5 0 a2.25 2.25 0 1 0 -4.5 0zM1140.75 945 a2.25 2.25 0 1 0 4.5 0 a2.25 2.25 0 1 0 -4.5 0zM1158.75 369 a2.25 2.25 0 1 0 4.5 0 a2.25 2.25 0 1 0 -4.5 0zM1194.75 297 a2.25 2.25 0 1 0 4.5 0 a2.25 2.25 0 1 0 -4.5 0z" fill="black"></path><path d="M780.75 63 a2.25 2.25 0 1 0 4.5 0 a2.25 2.25 0 1 0 -4.5 0z" fill="black"></path><path d="M1212.75 855 a2.25 2.25 0 1 0 4.5 0 a2.25 2.25 0 1 0 -4.5 0zM1230.75 387 a2.25 2.25 0 1 0 4.5 0 a2.25 2.25 0 1 0 -4.5 0zM1248.75 585 a2.25 2.25 0 1 0 4.5 0 a2.25 2.25 0 1 0 -4.5 0zM1194.75 225 a2.25 2.25 0 1 0 4.5 0 a2.25 2.25 0 1 0 -4.5 0zM1230.75 855 a2.25 2.25 0 1 0 4.5 0 a2.25 2.25 0 1 0 -4.5 0zM1230.75 459 a2.25 2.25 0 1 0 4.5 0 a2.25 2.25 0 1 0 -4.5 0zM1248.75 729 a2.25 2.25 0 1 0 4.5 0 a2.25 2.25 0 1 0 -4.5 0zM1194.75 189 a2.25 2.25 0 1 0 4.5 0 a2.25 2.25 0 1 0 -4.5 0zM1212.75 675 a2.25 2.25 0 1 0 4.5 0 a2.25 2.25 0 1 0 -4.5 0zM1230.75 747 a2.25 2.25 0 1 0 4.5 0 a2.25 2.25 0 1 0 -4.5 0zM1194.75 387 a2.25 2.25 0 1 0 4.5 0 a2.25 2.25 0 1 0 -4.5 0zM1230.75 711 a2.25 2.25 0 1 0 4.5 0 a2.25 2.25 0 1 0 -4.5 0zM1230.75 279 a2.25 2.25 0 1 0 4.5 0 a2.25 2.25 0 1 0 -4.5 0z" fill="black"></path><path d="M744.75 477 a2.25 2.25 0 1 0 4.5 0 a2.25 2.25 0 1 0 -4.5 0zM744.75 81 a2.25 2.25 0 1 0 4.5 0 a2.25 2.25 0 1 0 -4.5 0zM744.75 243 a2.25 2.25 0 1 0 4.5 0 a2.25 2.25 0 1 0 -4.5 0zM744.75 153 a2.25 2.25 0 1 0 4.5 0 a2.25 2.25 0 1 0 -4.5 0zM762.75 171 a2.25 2.25 0 1 0 4.5 0 a2.25 2.25 0 1 0 -4.5 0zM744.75 225 a2.25 2.25 0 1 0 4.5 0 a2.25 2.25 0 1 0 -4.5 0zM744.75 207 a2.25 2.25 0 1 0 4.5 0 a2.25 2.25 0 1 0 -4.5 0zM744.75 117 a2.25 2.25 0 1 0 4.5 0 a2.25 2.25 0 1 0 -4.5 0z" fill="black"></path><path d="M1230.75 207 a2.25 2.25 0 1 0 4.5 0 a2.25 2.25 0 1 0 -4.5 0zM1248.75 207 a2.25 2.25 0 1 0 4.5 0 a2.25 2.25 0 1 0 -4.5 0z" fill="black"></path><path d="M744.75 1053 a2.25 2.25 0 1 0 4.5 0 a2.25 2.25 0 1 0 -4.5 0zM690.75 1053 a2.25 2.25 0 1 0 4.5 0 a2.25 2.25 0 1 0 -4.5 0zM708.75 675 a2.25 2.25 0 1 0 4.5 0 a2.25 2.25 0 1 0 -4.5 0zM690.75 819 a2.25 2.25 0 1 0 4.5 0 a2.25 2.25 0 1 0 -4.5 0zM726.75 675 a2.25 2.25 0 1 0 4.5 0 a2.25 2.25 0 1 0 -4.5 0zM762.75 855 a2.25 2.25 0 1 0 4.5 0 a2.25 2.25 0 1 0 -4.5 0zM708.75 531 a2.25 2.25 0 1 0 4.5 0 a2.25 2.25 0 1 0 -4.5 0zM744.75 873 a2.25 2.25 0 1 0 4.5 0 a2.25 2.25 0 1 0 -4.5 0zM726.75 1053 a2.25 2.25 0 1 0 4.5 0 a2.25 2.25 0 1 0 -4.5 0zM762.75 765 a2.25 2.25 0 1 0 4.5 0 a2.25 2.25 0 1 0 -4.5 0zM744.75 513 a2.25 2.25 0 1 0 4.5 0 a2.25 2.25 0 1 0 -4.5 0zM744.75 837 a2.25 2.25 0 1 0 4.5 0 a2.25 2.25 0 1 0 -4.5 0zM708.75 1053 a2.25 2.25 0 1 0 4.5 0 a2.25 2.25 0 1 0 -4.5 0zM708.75 1035 a2.25 2.25 0 1 0 4.5 0 a2.25 2.25 0 1 0 -4.5 0zM780.75 1053 a2.25 2.25 0 1 0 4.5 0 a2.25 2.25 0 1 0 -4.5 0zM762.75 1053 a2.25 2.25 0 1 0 4.5 0 a2.25 2.25 0 1 0 -4.5 0z" fill="black"></path><path d="M1194.75 63 a2.25 2.25 0 1 0 4.5 0 a2.25 2.25 0 1 0 -4.5 0z" fill="black"></path><path d="M708.75 405 a2.25 2.25 0 1 0 4.5 0 a2.25 2.25 0 1 0 -4.5 0zM690.75 351 a2.25 2.25 0 1 0 4.5 0 a2.25 2.25 0 1 0 -4.5 0zM672.75 441 a2.25 2.25 0 1 0 4.5 0 a2.25 2.25 0 1 0 -4.5 0zM690.75 261 a2.25 2.25 0 1 0 4.5 0 a2.25 2.25 0 1 0 -4.5 0zM672.75 261 a2.25 2.25 0 1 0 4.5 0 a2.25 2.25 0 1 0 -4.5 0zM672.75 423 a2.25 2.25 0 1 0 4.5 0 a2.25 2.25 0 1 0 -4.5 0zM672.75 243 a2.25 2.25 0 1 0 4.5 0 a2.25 2.25 0 1 0 -4.5 0z" fill="black"></path><path d="M1302.75 693 a2.25 2.25 0 1 0 4.5 0 a2.25 2.25 0 1 0 -4.5 0zM1266.75 315 a2.25 2.25 0 1 0 4.5 0 a2.25 2.25 0 1 0 -4.5 0zM1338.75 603 a2.25 2.25 0 1 0 4.5 0 a2.25 2.25 0 1 0 -4.5 0zM1248.75 315 a2.25 2.25 0 1 0 4.5 0 a2.25 2.25 0 1 0 -4.5 0zM1338.75 495 a2.25 2.25 0 1 0 4.5 0 a2.25 2.25 0 1 0 -4.5 0zM1338.75 693 a2.25 2.25 0 1 0 4.5 0 a2.25 2.25 0 1 0 -4.5 0zM1302.75 639 a2.25 2.25 0 1 0 4.5 0 a2.25 2.25 0 1 0 -4.5 0zM1266.75 225 a2.25 2.25 0 1 0 4.5 0 a2.25 2.25 0 1 0 -4.5 0zM1248.75 189 a2.25 2.25 0 1 0 4.5 0 a2.25 2.25 0 1 0 -4.5 0zM1302.75 603 a2.25 2.25 0 1 0 4.5 0 a2.25 2.25 0 1 0 -4.5 0zM1284.75 423 a2.25 2.25 0 1 0 4.5 0 a2.25 2.25 0 1 0 -4.5 0z" fill="black"></path><path d="M636.75 315 a2.25 2.25 0 1 0 4.5 0 a2.25 2.25 0 1 0 -4.5 0zM672.75 297 a2.25 2.25 0 1 0 4.5 0 a2.25 2.25 0 1 0 -4.5 0zM672.75 225 a2.25 2.25 0 1 0 4.5 0 a2.25 2.25 0 1 0 -4.5 0zM690.75 189 a2.25 2.25 0 1 0 4.5 0 a2.25 2.25 0 1 0 -4.5 0zM672.75 369 a2.25 2.25 0 1 0 4.5 0 a2.25 2.25 0 1 0 -4.5 0z" fill="black"></path><path d="M1320.75 333 a2.25 2.25 0 1 0 4.5 0 a2.25 2.25 0 1 0 -4.5 0zM1194.75 27 a2.25 2.25 0 1 0 4.5 0 a2.25 2.25 0 1 0 -4.5 0zM1212.75 45 a2.25 2.25 0 1 0 4.5 0 a2.25 2.25 0 1 0 -4.5 0z" fill="black"></path><path d="M672.75 999 a2.25 2.25 0 1 0 4.5 0 a2.25 2.25 0 1 0 -4.5 0zM654.75 423 a2.25 2.25 0 1 0 4.5 0 a2.25 2.25 0 1 0 -4.5 0zM636.75 873 a2.25 2.25 0 1 0 4.5 0 a2.25 2.25 0 1 0 -4.5 0zM672.75 927 a2.25 2.25 0 1 0 4.5 0 a2.25 2.25 0 1 0 -4.5 0zM672.75 675 a2.25 2.25 0 1 0 4.5 0 a2.25 2.25 0 1 0 -4.5 0zM672.75 981 a2.25 2.25 0 1 0 4.5 0 a2.25 2.25 0 1 0 -4.5 0zM636.75 819 a2.25 2.25 0 1 0 4.5 0 a2.25 2.25 0 1 0 -4.5 0zM636.75 477 a2.25 2.25 0 1 0 4.5 0 a2.25 2.25 0 1 0 -4.5 0zM654.75 549 a2.25 2.25 0 1 0 4.5 0 a2.25 2.25 0 1 0 -4.5 0zM690.75 765 a2.25 2.25 0 1 0 4.5 0 a2.25 2.25 0 1 0 -4.5 0zM618.75 441 a2.25 2.25 0 1 0 4.5 0 a2.25 2.25 0 1 0 -4.5 0zM654.75 1053 a2.25 2.25 0 1 0 4.5 0 a2.25 2.25 0 1 0 -4.5 0zM600.75 1053 a2.25 2.25 0 1 0 4.5 0 a2.25 2.25 0 1 0 -4.5 0zM672.75 495 a2.25 2.25 0 1 0 4.5 0 a2.25 2.25 0 1 0 -4.5 0zM636.75 909 a2.25 2.25 0 1 0 4.5 0 a2.25 2.25 0 1 0 -4.5 0z" fill="black"></path><path d="M1338.75 405 a2.25 2.25 0 1 0 4.5 0 a2.25 2.25 0 1 0 -4.5 0zM1320.75 423 a2.25 2.25 0 1 0 4.5 0 a2.25 2.25 0 1 0 -4.5 0zM1320.75 387 a2.25 2.25 0 1 0 4.5 0 a2.25 2.25 0 1 0 -4.5 0zM1320.75 369 a2.25 2.25 0 1 0 4.5 0 a2.25 2.25 0 1 0 -4.5 0z" fill="black"></path><path d="M618.75 657 a2.25 2.25 0 1 0 4.5 0 a2.25 2.25 0 1 0 -4.5 0zM618.75 405 a2.25 2.25 0 1 0 4.5 0 a2.25 2.25 0 1 0 -4.5 0zM600.75 603 a2.25 2.25 0 1 0 4.5 0 a2.25 2.25 0 1 0 -4.5 0zM618.75 837 a2.25 2.25 0 1 0 4.5 0 a2.25 2.25 0 1 0 -4.5 0zM636.75 531 a2.25 2.25 0 1 0 4.5 0 a2.25 2.25 0 1 0 -4.5 0zM582.75 549 a2.25 2.25 0 1 0 4.5 0 a2.25 2.25 0 1 0 -4.5 0zM636.75 639 a2.25 2.25 0 1 0 4.5 0 a2.25 2.25 0 1 0 -4.5 0zM582.75 459 a2.25 2.25 0 1 0 4.5 0 a2.25 2.25 0 1 0 -4.5 0zM636.75 513 a2.25 2.25 0 1 0 4.5 0 a2.25 2.25 0 1 0 -4.5 0zM654.75 639 a2.25 2.25 0 1 0 4.5 0 a2.25 2.25 0 1 0 -4.5 0z" fill="black"></path><path d="M1230.75 9 a2.25 2.25 0 1 0 4.5 0 a2.25 2.25 0 1 0 -4.5 0z" fill="black"></path><path d="M582.75 711 a2.25 2.25 0 1 0 4.5 0 a2.25 2.25 0 1 0 -4.5 0zM582.75 279 a2.25 2.25 0 1 0 4.5 0 a2.25 2.25 0 1 0 -4.5 0zM600.75 297 a2.25 2.25 0 1 0 4.5 0 a2.25 2.25 0 1 0 -4.5 0zM546.75 585 a2.25 2.25 0 1 0 4.5 0 a2.25 2.25 0 1 0 -4.5 0zM564.75 783 a2.25 2.25 0 1 0 4.5 0 a2.25 2.25 0 1 0 -4.5 0zM600.75 801 a2.25 2.25 0 1 0 4.5 0 a2.25 2.25 0 1 0 -4.5 0zM618.75 153 a2.25 2.25 0 1 0 4.5 0 a2.25 2.25 0 1 0 -4.5 0zM618.75 765 a2.25 2.25 0 1 0 4.5 0 a2.25 2.25 0 1 0 -4.5 0zM618.75 135 a2.25 2.25 0 1 0 4.5 0 a2.25 2.25 0 1 0 -4.5 0zM546.75 549 a2.25 2.25 0 1 0 4.5 0 a2.25 2.25 0 1 0 -4.5 0zM564.75 657 a2.25 2.25 0 1 0 4.5 0 a2.25 2.25 0 1 0 -4.5 0z" fill="black"></path><path d="M1374.75 711 a2.25 2.25 0 1 0 4.5 0 a2.25 2.25 0 1 0 -4.5 0zM1374.75 387 a2.25 2.25 0 1 0 4.5 0 a2.25 2.25 0 1 0 -4.5 0zM1392.75 549 a2.25 2.25 0 1 0 4.5 0 a2.25 2.25 0 1 0 -4.5 0zM1374.75 855 a2.25 2.25 0 1 0 4.5 0 a2.25 2.25 0 1 0 -4.5 0zM1356.75 603 a2.25 2.25 0 1 0 4.5 0 a2.25 2.25 0 1 0 -4.5 0zM1392.75 621 a2.25 2.25 0 1 0 4.5 0 a2.25 2.25 0 1 0 -4.5 0zM1338.75 567 a2.25 2.25 0 1 0 4.5 0 a2.25 2.25 0 1 0 -4.5 0zM1392.75 459 a2.25 2.25 0 1 0 4.5 0 a2.25 2.25 0 1 0 -4.5 0zM1338.75 279 a2.25 2.25 0 1 0 4.5 0 a2.25 2.25 0 1 0 -4.5 0zM1392.75 441 a2.25 2.25 0 1 0 4.5 0 a2.25 2.25 0 1 0 -4.5 0zM1410.75 693 a2.25 2.25 0 1 0 4.5 0 a2.25 2.25 0 1 0 -4.5 0z" fill="black"></path><path d="M582.75 189 a2.25 2.25 0 1 0 4.5 0 a2.25 2.25 0 1 0 -4.5 0zM618.75 81 a2.25 2.25 0 1 0 4.5 0 a2.25 2.25 0 1 0 -4.5 0z" fill="black"></path><path d="M1392.75 783 a2.25 2.25 0 1 0 4.5 0 a2.25 2.25 0 1 0 -4.5 0zM1392.75 423 a2.25 2.25 0 1 0 4.5 0 a2.25 2.25 0 1 0 -4.5 0zM1320.75 171 a2.25 2.25 0 1 0 4.5 0 a2.25 2.25 0 1 0 -4.5 0zM1410.75 657 a2.25 2.25 0 1 0 4.5 0 a2.25 2.25 0 1 0 -4.5 0zM1410.75 639 a2.25 2.25 0 1 0 4.5 0 a2.25 2.25 0 1 0 -4.5 0zM1374.75 369 a2.25 2.25 0 1 0 4.5 0 a2.25 2.25 0 1 0 -4.5 0zM1392.75 369 a2.25 2.25 0 1 0 4.5 0 a2.25 2.25 0 1 0 -4.5 0zM1428.75 441 a2.25 2.25 0 1 0 4.5 0 a2.25 2.25 0 1 0 -4.5 0zM1410.75 603 a2.25 2.25 0 1 0 4.5 0 a2.25 2.25 0 1 0 -4.5 0zM1428.75 765 a2.25 2.25 0 1 0 4.5 0 a2.25 2.25 0 1 0 -4.5 0zM1428.75 567 a2.25 2.25 0 1 0 4.5 0 a2.25 2.25 0 1 0 -4.5 0zM1410.75 891 a2.25 2.25 0 1 0 4.5 0 a2.25 2.25 0 1 0 -4.5 0z" fill="black"></path><path d="M546.75 711 a2.25 2.25 0 1 0 4.5 0 a2.25 2.25 0 1 0 -4.5 0zM528.75 783 a2.25 2.25 0 1 0 4.5 0 a2.25 2.25 0 1 0 -4.5 0zM546.75 261 a2.25 2.25 0 1 0 4.5 0 a2.25 2.25 0 1 0 -4.5 0zM528.75 693 a2.25 2.25 0 1 0 4.5 0 a2.25 2.25 0 1 0 -4.5 0zM528.75 657 a2.25 2.25 0 1 0 4.5 0 a2.25 2.25 0 1 0 -4.5 0zM564.75 639 a2.25 2.25 0 1 0 4.5 0 a2.25 2.25 0 1 0 -4.5 0zM582.75 63 a2.25 2.25 0 1 0 4.5 0 a2.25 2.25 0 1 0 -4.5 0zM564.75 621 a2.25 2.25 0 1 0 4.5 0 a2.25 2.25 0 1 0 -4.5 0zM546.75 531 a2.25 2.25 0 1 0 4.5 0 a2.25 2.25 0 1 0 -4.5 0z" fill="black"></path><path d="M1428.75 585 a2.25 2.25 0 1 0 4.5 0 a2.25 2.25 0 1 0 -4.5 0zM1392.75 261 a2.25 2.25 0 1 0 4.5 0 a2.25 2.25 0 1 0 -4.5 0zM1428.75 531 a2.25 2.25 0 1 0 4.5 0 a2.25 2.25 0 1 0 -4.5 0zM1392.75 297 a2.25 2.25 0 1 0 4.5 0 a2.25 2.25 0 1 0 -4.5 0zM1446.75 585 a2.25 2.25 0 1 0 4.5 0 a2.25 2.25 0 1 0 -4.5 0zM1428.75 477 a2.25 2.25 0 1 0 4.5 0 a2.25 2.25 0 1 0 -4.5 0zM1428.75 405 a2.25 2.25 0 1 0 4.5 0 a2.25 2.25 0 1 0 -4.5 0z" fill="black"></path><path d="M510.75 729 a2.25 2.25 0 1 0 4.5 0 a2.25 2.25 0 1 0 -4.5 0zM492.75 657 a2.25 2.25 0 1 0 4.5 0 a2.25 2.25 0 1 0 -4.5 0zM528.75 351 a2.25 2.25 0 1 0 4.5 0 a2.25 2.25 0 1 0 -4.5 0zM492.75 513 a2.25 2.25 0 1 0 4.5 0 a2.25 2.25 0 1 0 -4.5 0zM528.75 315 a2.25 2.25 0 1 0 4.5 0 a2.25 2.25 0 1 0 -4.5 0zM492.75 711 a2.25 2.25 0 1 0 4.5 0 a2.25 2.25 0 1 0 -4.5 0zM546.75 153 a2.25 2.25 0 1 0 4.5 0 a2.25 2.25 0 1 0 -4.5 0zM546.75 225 a2.25 2.25 0 1 0 4.5 0 a2.25 2.25 0 1 0 -4.5 0zM582.75 45 a2.25 2.25 0 1 0 4.5 0 a2.25 2.25 0 1 0 -4.5 0z" fill="black"></path><path d="M1464.75 945 a2.25 2.25 0 1 0 4.5 0 a2.25 2.25 0 1 0 -4.5 0zM1446.75 909 a2.25 2.25 0 1 0 4.5 0 a2.25 2.25 0 1 0 -4.5 0zM1464.75 621 a2.25 2.25 0 1 0 4.5 0 a2.25 2.25 0 1 0 -4.5 0zM1338.75 117 a2.25 2.25 0 1 0 4.5 0 a2.25 2.25 0 1 0 -4.5 0zM1482.75 783 a2.25 2.25 0 1 0 4.5 0 a2.25 2.25 0 1 0 -4.5 0zM1428.75 1053 a2.25 2.25 0 1 0 4.5 0 a2.25 2.25 0 1 0 -4.5 0zM1392.75 243 a2.25 2.25 0 1 0 4.5 0 a2.25 2.25 0 1 0 -4.5 0zM1482.75 729 a2.25 2.25 0 1 0 4.5 0 a2.25 2.25 0 1 0 -4.5 0zM1428.75 891 a2.25 2.25 0 1 0 4.5 0 a2.25 2.25 0 1 0 -4.5 0zM1446.75 765 a2.25 2.25 0 1 0 4.5 0 a2.25 2.25 0 1 0 -4.5 0zM1464.75 603 a2.25 2.25 0 1 0 4.5 0 a2.25 2.25 0 1 0 -4.5 0zM1482.75 1053 a2.25 2.25 0 1 0 4.5 0 a2.25 2.25 0 1 0 -4.5 0zM1482.75 873 a2.25 2.25 0 1 0 4.5 0 a2.25 2.25 0 1 0 -4.5 0z" fill="black"></path><path d="M474.75 945 a2.25 2.25 0 1 0 4.5 0 a2.25 2.25 0 1 0 -4.5 0zM456.75 1053 a2.25 2.25 0 1 0 4.5 0 a2.25 2.25 0 1 0 -4.5 0zM456.75 585 a2.25 2.25 0 1 0 4.5 0 a2.25 2.25 0 1 0 -4.5 0zM474.75 477 a2.25 2.25 0 1 0 4.5 0 a2.25 2.25 0 1 0 -4.5 0zM492.75 873 a2.25 2.25 0 1 0 4.5 0 a2.25 2.25 0 1 0 -4.5 0zM510.75 873 a2.25 2.25 0 1 0 4.5 0 a2.25 2.25 0 1 0 -4.5 0zM492.75 333 a2.25 2.25 0 1 0 4.5 0 a2.25 2.25 0 1 0 -4.5 0zM456.75 711 a2.25 2.25 0 1 0 4.5 0 a2.25 2.25 0 1 0 -4.5 0zM474.75 513 a2.25 2.25 0 1 0 4.5 0 a2.25 2.25 0 1 0 -4.5 0zM510.75 387 a2.25 2.25 0 1 0 4.5 0 a2.25 2.25 0 1 0 -4.5 0zM492.75 405 a2.25 2.25 0 1 0 4.5 0 a2.25 2.25 0 1 0 -4.5 0zM492.75 747 a2.25 2.25 0 1 0 4.5 0 a2.25 2.25 0 1 0 -4.5 0zM510.75 1053 a2.25 2.25 0 1 0 4.5 0 a2.25 2.25 0 1 0 -4.5 0zM438.75 549 a2.25 2.25 0 1 0 4.5 0 a2.25 2.25 0 1 0 -4.5 0z" fill="black"></path><path d="M1482.75 657 a2.25 2.25 0 1 0 4.5 0 a2.25 2.25 0 1 0 -4.5 0zM1500.75 621 a2.25 2.25 0 1 0 4.5 0 a2.25 2.25 0 1 0 -4.5 0zM1464.75 657 a2.25 2.25 0 1 0 4.5 0 a2.25 2.25 0 1 0 -4.5 0zM1482.75 711 a2.25 2.25 0 1 0 4.5 0 a2.25 2.25 0 1 0 -4.5 0zM1500.75 585 a2.25 2.25 0 1 0 4.5 0 a2.25 2.25 0 1 0 -4.5 0z" fill="black"></path><path d="M510.75 207 a2.25 2.25 0 1 0 4.5 0 a2.25 2.25 0 1 0 -4.5 0zM492.75 243 a2.25 2.25 0 1 0 4.5 0 a2.25 2.25 0 1 0 -4.5 0zM492.75 189 a2.25 2.25 0 1 0 4.5 0 a2.25 2.25 0 1 0 -4.5 0z" fill="black"></path><path d="M1482.75 837 a2.25 2.25 0 1 0 4.5 0 a2.25 2.25 0 1 0 -4.5 0zM1500.75 999 a2.25 2.25 0 1 0 4.5 0 a2.25 2.25 0 1 0 -4.5 0zM1518.75 927 a2.25 2.25 0 1 0 4.5 0 a2.25 2.25 0 1 0 -4.5 0zM1536.75 693 a2.25 2.25 0 1 0 4.5 0 a2.25 2.25 0 1 0 -4.5 0zM1518.75 765 a2.25 2.25 0 1 0 4.5 0 a2.25 2.25 0 1 0 -4.5 0zM1518.75 531 a2.25 2.25 0 1 0 4.5 0 a2.25 2.25 0 1 0 -4.5 0zM1500.75 459 a2.25 2.25 0 1 0 4.5 0 a2.25 2.25 0 1 0 -4.5 0zM1518.75 747 a2.25 2.25 0 1 0 4.5 0 a2.25 2.25 0 1 0 -4.5 0zM1518.75 729 a2.25 2.25 0 1 0 4.5 0 a2.25 2.25 0 1 0 -4.5 0z" fill="black"></path><path d="M420.75 837 a2.25 2.25 0 1 0 4.5 0 a2.25 2.25 0 1 0 -4.5 0zM438.75 405 a2.25 2.25 0 1 0 4.5 0 a2.25 2.25 0 1 0 -4.5 0zM420.75 477 a2.25 2.25 0 1 0 4.5 0 a2.25 2.25 0 1 0 -4.5 0zM402.75 927 a2.25 2.25 0 1 0 4.5 0 a2.25 2.25 0 1 0 -4.5 0zM438.75 819 a2.25 2.25 0 1 0 4.5 0 a2.25 2.25 0 1 0 -4.5 0zM402.75 747 a2.25 2.25 0 1 0 4.5 0 a2.25 2.25 0 1 0 -4.5 0zM438.75 387 a2.25 2.25 0 1 0 4.5 0 a2.25 2.25 0 1 0 -4.5 0zM438.75 531 a2.25 2.25 0 1 0 4.5 0 a2.25 2.25 0 1 0 -4.5 0zM456.75 369 a2.25 2.25 0 1 0 4.5 0 a2.25 2.25 0 1 0 -4.5 0zM492.75 171 a2.25 2.25 0 1 0 4.5 0 a2.25 2.25 0 1 0 -4.5 0zM402.75 729 a2.25 2.25 0 1 0 4.5 0 a2.25 2.25 0 1 0 -4.5 0zM402.75 675 a2.25 2.25 0 1 0 4.5 0 a2.25 2.25 0 1 0 -4.5 0zM456.75 819 a2.25 2.25 0 1 0 4.5 0 a2.25 2.25 0 1 0 -4.5 0z" fill="black"></path><path d="M1572.75 1017 a2.25 2.25 0 1 0 4.5 0 a2.25 2.25 0 1 0 -4.5 0zM1608.75 1053 a2.25 2.25 0 1 0 4.5 0 a2.25 2.25 0 1 0 -4.5 0zM1500.75 387 a2.25 2.25 0 1 0 4.5 0 a2.25 2.25 0 1 0 -4.5 0zM1590.75 747 a2.25 2.25 0 1 0 4.5 0 a2.25 2.25 0 1 0 -4.5 0zM1554.75 801 a2.25 2.25 0 1 0 4.5 0 a2.25 2.25 0 1 0 -4.5 0zM1536.75 981 a2.25 2.25 0 1 0 4.5 0 a2.25 2.25 0 1 0 -4.5 0zM1554.75 1035 a2.25 2.25 0 1 0 4.5 0 a2.25 2.25 0 1 0 -4.5 0zM1536.75 909 a2.25 2.25 0 1 0 4.5 0 a2.25 2.25 0 1 0 -4.5 0zM1572.75 639 a2.25 2.25 0 1 0 4.5 0 a2.25 2.25 0 1 0 -4.5 0zM1554.75 837 a2.25 2.25 0 1 0 4.5 0 a2.25 2.25 0 1 0 -4.5 0z" fill="black"></path><path d="M384.75 747 a2.25 2.25 0 1 0 4.5 0 a2.25 2.25 0 1 0 -4.5 0zM420.75 459 a2.25 2.25 0 1 0 4.5 0 a2.25 2.25 0 1 0 -4.5 0zM420.75 441 a2.25 2.25 0 1 0 4.5 0 a2.25 2.25 0 1 0 -4.5 0zM402.75 603 a2.25 2.25 0 1 0 4.5 0 a2.25 2.25 0 1 0 -4.5 0zM402.75 639 a2.25 2.25 0 1 0 4.5 0 a2.25 2.25 0 1 0 -4.5 0zM456.75 207 a2.25 2.25 0 1 0 4.5 0 a2.25 2.25 0 1 0 -4.5 0zM456.75 153 a2.25 2.25 0 1 0 4.5 0 a2.25 2.25 0 1 0 -4.5 0z" fill="black"></path><path d="M1590.75 675 a2.25 2.25 0 1 0 4.5 0 a2.25 2.25 0 1 0 -4.5 0zM1572.75 621 a2.25 2.25 0 1 0 4.5 0 a2.25 2.25 0 1 0 -4.5 0zM1500.75 279 a2.25 2.25 0 1 0 4.5 0 a2.25 2.25 0 1 0 -4.5 0zM1554.75 441 a2.25 2.25 0 1 0 4.5 0 a2.25 2.25 0 1 0 -4.5 0zM1572.75 585 a2.25 2.25 0 1 0 4.5 0 a2.25 2.25 0 1 0 -4.5 0zM1446.75 135 a2.25 2.25 0 1 0 4.5 0 a2.25 2.25 0 1 0 -4.5 0z" fill="black"></path><path d="M402.75 423 a2.25 2.25 0 1 0 4.5 0 a2.25 2.25 0 1 0 -4.5 0zM456.75 81 a2.25 2.25 0 1 0 4.5 0 a2.25 2.25 0 1 0 -4.5 0z" fill="black"></path><path d="M1392.75 9 a2.25 2.25 0 1 0 4.5 0 a2.25 2.25 0 1 0 -4.5 0z" fill="black"></path><path d="M366.75 765 a2.25 2.25 0 1 0 4.5 0 a2.25 2.25 0 1 0 -4.5 0zM348.75 477 a2.25 2.25 0 1 0 4.5 0 a2.25 2.25 0 1 0 -4.5 0zM348.75 747 a2.25 2.25 0 1 0 4.5 0 a2.25 2.25 0 1 0 -4.5 0zM330.75 783 a2.25 2.25 0 1 0 4.5 0 a2.25 2.25 0 1 0 -4.5 0zM402.75 189 a2.25 2.25 0 1 0 4.5 0 a2.25 2.25 0 1 0 -4.5 0zM384.75 297 a2.25 2.25 0 1 0 4.5 0 a2.25 2.25 0 1 0 -4.5 0zM330.75 423 a2.25 2.25 0 1 0 4.5 0 a2.25 2.25 0 1 0 -4.5 0zM384.75 189 a2.25 2.25 0 1 0 4.5 0 a2.25 2.25 0 1 0 -4.5 0zM330.75 621 a2.25 2.25 0 1 0 4.5 0 a2.25 2.25 0 1 0 -4.5 0zM366.75 531 a2.25 2.25 0 1 0 4.5 0 a2.25 2.25 0 1 0 -4.5 0zM330.75 387 a2.25 2.25 0 1 0 4.5 0 a2.25 2.25 0 1 0 -4.5 0zM366.75 567 a2.25 2.25 0 1 0 4.5 0 a2.25 2.25 0 1 0 -4.5 0z" fill="black"></path><path d="M1608.75 945 a2.25 2.25 0 1 0 4.5 0 a2.25 2.25 0 1 0 -4.5 0zM1626.75 621 a2.25 2.25 0 1 0 4.5 0 a2.25 2.25 0 1 0 -4.5 0zM1482.75 207 a2.25 2.25 0 1 0 4.5 0 a2.25 2.25 0 1 0 -4.5 0zM1626.75 891 a2.25 2.25 0 1 0 4.5 0 a2.25 2.25 0 1 0 -4.5 0zM1482.75 153 a2.25 2.25 0 1 0 4.5 0 a2.25 2.25 0 1 0 -4.5 0zM1608.75 567 a2.25 2.25 0 1 0 4.5 0 a2.25 2.25 0 1 0 -4.5 0zM1536.75 279 a2.25 2.25 0 1 0 4.5 0 a2.25 2.25 0 1 0 -4.5 0zM1590.75 837 a2.25 2.25 0 1 0 4.5 0 a2.25 2.25 0 1 0 -4.5 0zM1644.75 1035 a2.25 2.25 0 1 0 4.5 0 a2.25 2.25 0 1 0 -4.5 0zM1626.75 1017 a2.25 2.25 0 1 0 4.5 0 a2.25 2.25 0 1 0 -4.5 0zM1644.75 729 a2.25 2.25 0 1 0 4.5 0 a2.25 2.25 0 1 0 -4.5 0zM1608.75 999 a2.25 2.25 0 1 0 4.5 0 a2.25 2.25 0 1 0 -4.5 0zM1446.75 117 a2.25 2.25 0 1 0 4.5 0 a2.25 2.25 0 1 0 -4.5 0zM1644.75 711 a2.25 2.25 0 1 0 4.5 0 a2.25 2.25 0 1 0 -4.5 0z" fill="black"></path><path d="M420.75 81 a2.25 2.25 0 1 0 4.5 0 a2.25 2.25 0 1 0 -4.5 0z" fill="black"></path></mask></defs></svg>